<svg width="70" height="70" viewBox="0 0 70 70" fill="none" xmlns="http://www.w3.org/2000/svg">
<rect width="70" height="70" rx="35" fill="#085410"/>
<path d="M48.7636 31.9874C48.4003 31.1312 47.9562 30.3116 47.4372 29.5398L44.65 31.4209C45.4535 32.6149 46.0171 33.9538 46.3092 35.3631C46.6054 36.8321 46.6054 38.3455 46.3092 39.8146C46.1632 40.5241 45.9469 41.2173 45.6637 41.884C45.3884 42.5391 45.0488 43.1653 44.65 43.7534C43.8517 44.9273 42.8387 45.9397 41.6644 46.7373C40.4714 47.5404 39.1336 48.104 37.7256 48.3966C36.2576 48.6922 34.7454 48.6922 33.2774 48.3966C31.1644 47.9625 29.2254 46.9173 27.7012 45.3908C26.6943 44.3835 25.8906 43.1918 25.3343 41.8806C25.0533 41.214 24.8382 40.5214 24.6921 39.8129C24.2486 37.6251 24.4723 35.3545 25.3343 33.2953C25.8905 31.9855 26.6935 30.795 27.6996 29.7886C28.706 28.7825 29.8965 27.9795 31.2063 27.4233C31.8703 27.1425 32.568 26.9257 33.2741 26.7811C33.4539 26.7441 33.6372 26.7273 33.8187 26.6987V31.8109L42.2242 25.0865L33.8187 18.3622V23.3012C33.4101 23.3468 33.0035 23.4091 32.5999 23.4878C30.7576 23.8648 29.0077 24.6018 27.4508 25.6564C24.6845 27.5225 22.6521 30.2913 21.701 33.4897C20.7498 36.6881 20.939 40.1175 22.236 43.1919C22.9568 44.9044 24.0046 46.4598 25.3208 47.7712C26.6337 49.0824 28.1867 50.1285 29.8951 50.8526C32.5803 51.9887 35.5476 52.2813 38.4031 51.6915C40.6885 51.2185 42.8251 50.198 44.6294 48.7176C46.4337 47.2372 47.8518 45.341 48.7619 43.1919C49.1318 42.3177 49.4159 41.4083 49.6025 40.4887C49.9942 38.5753 49.9942 36.6023 49.6025 34.6889C49.4108 33.7634 49.1299 32.8587 48.7636 31.9874Z" fill="white"/>
</svg>
