<svg width="70" height="70" viewBox="0 0 70 70" fill="none" xmlns="http://www.w3.org/2000/svg">
<rect width="70" height="70" rx="35" fill="#085410"/>
<path d="M19.6832 30.4694H50.3167M19.6832 30.4694V48.2046C19.6832 48.6322 19.8531 49.0423 20.1555 49.3447C20.4578 49.647 20.8679 49.8169 21.2955 49.8169H48.7045C49.1321 49.8169 49.5422 49.647 49.8445 49.3447C50.1469 49.0423 50.3167 48.6322 50.3167 48.2046V30.4694M19.6832 30.4694V23.2141C19.6832 22.7865 19.8531 22.3764 20.1555 22.074C20.4578 21.7717 20.8679 21.6018 21.2955 21.6018H48.7045C49.1321 21.6018 49.5422 21.7717 49.8445 22.074C50.1469 22.3764 50.3167 22.7865 50.3167 23.2141V30.4694" stroke="white" stroke-width="3.22458" stroke-linejoin="round"/>
<path d="M28.5508 40.143L33.3877 44.9799L43.0614 35.3062" stroke="white" stroke-width="3.22458" stroke-linecap="round" stroke-linejoin="round"/>
<path d="M28.5508 19.1833V25.6325M41.4491 19.1833V25.6325" stroke="white" stroke-width="3.22458" stroke-linecap="round"/>
</svg>
