<svg width="322" height="407" viewBox="0 0 322 407" fill="none" xmlns="http://www.w3.org/2000/svg">
<path d="M82.5399 114.034C82.2959 113.532 81.8828 113.115 81.3609 112.843C80.839 112.57 80.2355 112.458 79.6387 112.521C69.9384 113.282 60.2963 110.552 52.7674 104.911C46.9787 100.429 42.857 94.4145 40.9718 87.6987C39.0867 80.9832 39.5315 73.8984 42.2446 67.4239C42.4587 66.9233 42.4898 66.3728 42.3332 65.8547C42.1765 65.3366 41.8406 64.8787 41.3756 64.5495C40.9106 64.2203 40.3415 64.0375 39.7534 64.0284C39.1652 64.0193 38.5897 64.1844 38.1127 64.499C33.6235 67.6201 29.6476 71.3139 26.3069 75.4672C25.8561 75.8848 25.4178 76.3138 24.9972 76.7736C22.3205 79.7291 20.3541 83.166 19.2259 86.8611C12.0542 109.836 29.8723 134.53 57.9066 129.047C66.919 127.163 75.162 122.982 81.6783 116.989C82.1431 116.642 82.4763 116.17 82.6309 115.639C82.7856 115.109 82.7537 114.546 82.5399 114.034Z" fill="#FFC258"/>
<path d="M268.714 84.5433C268.025 84.016 267.315 83.5114 266.587 83.0296C267.152 83.4042 268.14 77.2458 265.724 78.973L263.004 80.9229C261.948 80.3715 260.87 79.8656 259.767 79.4053C259.6 79.3259 259.409 79.2971 259.223 79.3232C259.036 79.3492 258.865 79.4287 258.731 79.5501C258.597 79.6715 258.509 79.8286 258.48 79.9987C258.45 80.1687 258.48 80.3431 258.566 80.4964C258.985 81.399 259.381 82.3066 259.767 83.2189C259.124 83.6877 257.1 85.0169 257.456 85.9147C257.9 87.044 259.484 86.3258 260.246 86.6646C261.506 87.2235 261.579 87.7866 262.088 89.2978C262.355 90.0899 263.688 90.4352 263.973 89.5943L265.067 86.3786C266.174 86.2974 267.281 86.2161 268.381 86.1007C269.259 86.0097 269.416 85.0827 268.715 84.5473" fill="#FFC258"/>
<path d="M164.379 9.17385C163.561 8.30395 162.711 7.46116 161.83 6.64545C161.968 6.77463 164.203 2.89596 163.402 1.75852C161.964 -0.283182 159.312 2.04857 157.422 2.99346C156.107 2.01851 154.75 1.08987 153.347 0.231103C153.137 0.0849745 152.881 0.00404857 152.617 0.000147928C152.353 -0.00375272 152.095 0.0695776 151.88 0.209424C151.664 0.349269 151.503 0.548304 151.421 0.777453C151.339 1.0066 151.338 1.25386 151.421 1.4831C151.772 2.81309 152.092 4.14634 152.399 5.4812C150.764 6.31478 146.632 8.38658 150.115 9.97412C153.455 11.4959 153.455 10.1366 154.071 14.3346C154.238 15.4801 155.988 16.2341 156.592 15.1365L158.904 10.9369C160.449 11.0531 161.993 11.1741 163.536 11.2464C164.767 11.3041 165.215 10.0611 164.383 9.1771" fill="#FFC258"/>
<path d="M319.661 226.081C318.453 225.772 317.234 225.501 316.005 225.269C316.199 225.306 315.704 220.946 314.346 220.406C311.91 219.436 311.123 222.719 310.12 224.464C308.431 224.316 306.742 224.234 305.052 224.228C304.789 224.213 304.527 224.275 304.305 224.405C304.082 224.536 303.912 224.728 303.817 224.954C303.723 225.179 303.711 225.427 303.781 225.659C303.852 225.891 304.001 226.098 304.21 226.246C305.308 227.175 306.384 228.122 307.448 229.079C306.593 230.6 304.413 234.418 308.276 233.974C311.979 233.547 311.151 232.414 314.214 235.599C315.048 236.466 316.961 236.206 316.798 234.988C316.589 233.433 316.38 231.878 316.17 230.323C317.526 229.637 318.886 228.954 320.211 228.233C321.271 227.656 320.89 226.395 319.662 226.081" fill="#3B8C67"/>
<path d="M18.1046 305.701C16.969 306.189 15.8534 306.713 14.758 307.273C14.9313 307.183 11.4371 304.185 10.0225 304.584C7.48491 305.306 9.23913 308.26 9.72993 310.179C8.34736 311.072 7.00922 312.025 5.72888 313.031C5.51757 313.177 5.36293 313.381 5.28767 313.612C5.21241 313.844 5.22049 314.092 5.31074 314.319C5.40098 314.546 5.56864 314.741 5.78905 314.875C6.00947 315.009 6.27103 315.075 6.53532 315.062C8.03083 315.109 9.52365 315.183 11.0112 315.27C11.4557 316.931 12.5378 321.119 15.1421 318.478C17.637 315.943 16.201 315.58 20.7951 316.158C22.0488 316.317 23.3096 314.977 22.3129 314.153L18.4985 310.998C19.032 309.668 19.5726 308.339 20.0598 307C20.4484 305.932 19.2596 305.206 18.1038 305.7" fill="#FFC258"/>
<path d="M34.4158 187.421C34.2095 186.737 33.9777 186.06 33.7205 185.39C33.7605 185.495 36.1318 183.865 36.0126 183.033C35.7984 181.544 33.6422 182.21 32.3103 182.281C31.8568 181.418 31.3652 180.575 30.829 179.75C30.7538 179.618 30.6342 179.511 30.4876 179.445C30.341 179.378 30.1751 179.357 30.0142 179.383C29.8534 179.41 29.7059 179.482 29.5935 179.591C29.4811 179.699 29.4096 179.838 29.3895 179.986C29.201 180.815 28.9956 181.638 28.7805 182.457C27.6246 182.53 24.7145 182.691 26.202 184.42C27.6299 186.077 28.0238 185.313 27.1542 187.814C26.9168 188.496 27.6788 189.339 28.3323 188.87L30.8379 187.083C31.6684 187.52 32.4979 187.96 33.3399 188.373C34.0121 188.702 34.6212 188.115 34.4122 187.42" fill="#3B8C67"/>
<path d="M315.235 333.246C315.028 332.563 314.796 331.885 314.539 331.215C314.579 331.321 316.951 329.69 316.832 328.859C316.617 327.37 314.461 328.035 313.129 328.106C312.676 327.243 312.184 326.4 311.648 325.576C311.572 325.443 311.453 325.337 311.307 325.271C311.16 325.205 310.995 325.184 310.834 325.21C310.674 325.236 310.526 325.309 310.414 325.417C310.302 325.525 310.23 325.663 310.209 325.811C310.021 326.641 309.815 327.463 309.599 328.283C308.444 328.355 305.533 328.517 307.021 330.245C308.449 331.902 308.843 331.139 307.973 333.639C307.736 334.321 308.498 335.164 309.151 334.695L311.657 332.904C312.487 333.341 313.317 333.781 314.159 334.194C314.831 334.523 315.44 333.937 315.231 333.241" fill="#FFC258"/>
<path d="M237.905 36.1369C237.913 36.0955 237.914 36.0536 237.911 36.0118C237.89 35.8838 237.833 35.7631 237.745 35.6616C237.729 35.6335 237.711 35.6064 237.69 35.5804C237.686 35.5739 237.677 35.5706 237.672 35.5658C237.666 35.5609 237.648 35.5438 237.639 35.5325L237.647 35.5446C237.575 35.4601 237.487 35.3882 237.386 35.3326C237.352 35.3176 237.319 35.3043 237.283 35.2928C237.116 35.2048 236.942 35.1279 236.762 35.0629C236.696 35.0449 236.629 35.0353 236.56 35.0344C236.372 35.0004 236.176 35.0131 235.995 35.071L235.895 35.1067C235.579 35.1998 235.309 35.3899 235.129 35.6446L234.999 35.9241C234.946 36.0752 234.938 36.2364 234.976 36.3912C234.976 36.4952 235.007 36.5973 235.065 36.687C235.117 36.8311 235.209 36.9606 235.331 37.0631C235.42 37.1249 235.504 37.1858 235.591 37.2467C235.787 37.3525 236.011 37.4087 236.238 37.4092L236.327 37.4133H236.387C236.563 37.4207 236.737 37.3853 236.893 37.3109C236.957 37.296 237.017 37.2704 237.071 37.2354C237.134 37.1941 237.191 37.1458 237.241 37.0916C237.355 37.0206 237.457 36.9358 237.546 36.8397C237.565 36.8251 237.583 36.8113 237.6 36.7958C237.709 36.6923 237.789 36.5671 237.835 36.4302L237.894 36.3035C237.905 36.2477 237.908 36.1909 237.902 36.1345V36.1231L237.905 36.1369Z" fill="white"/>
<path d="M91.0871 43.6211L91.2045 43.605H91.2C91.1609 43.605 91.1333 43.6157 91.088 43.6202" fill="white"/>
<path d="M92.3656 42.1191C92.3424 42.068 92.338 42.0119 92.3211 41.9607C92.2713 41.8197 92.21 41.6823 92.1379 41.5496L91.9521 41.3302C91.849 41.2265 91.7174 41.1494 91.5716 41.1068C91.4818 41.0577 91.3786 41.0319 91.2737 41.0321C91.1875 41.0244 91.0994 41.0282 91.0141 41.0434C90.9581 41.0337 90.9012 41.0312 90.8443 41.0361C90.7696 41.0357 90.6958 41.0537 90.6309 41.0881C90.5286 41.1207 90.4361 41.1766 90.3641 41.2506C90.349 41.2644 90.3455 41.2856 90.3321 41.3002C90.2414 41.373 90.1623 41.4579 90.0992 41.552C90.0369 41.6528 89.9942 41.7628 89.9729 41.877C89.964 41.9212 89.9516 41.9647 89.9347 42.007C89.8635 42.1393 89.8298 42.2855 89.8351 42.4327C89.8511 42.5376 89.8662 42.6416 89.8813 42.7472C89.9409 42.9438 90.0556 43.1229 90.2139 43.2671L90.2761 43.3427C90.3739 43.4377 90.4957 43.5084 90.6318 43.5483C90.7162 43.5925 90.8114 43.6163 90.9083 43.6173C91.007 43.6289 91.1074 43.6249 91.2044 43.6051C91.271 43.5998 91.3368 43.5911 91.4026 43.5791C91.4915 43.5491 91.5849 43.5101 91.6694 43.4751L91.4026 43.5791C91.5333 43.5551 91.6596 43.512 91.7752 43.4516C91.8623 43.3888 91.9494 43.327 92.0366 43.2663C92.1593 43.1627 92.2517 43.0321 92.3033 42.8869C92.3611 42.7968 92.3922 42.6941 92.3922 42.5896C92.4314 42.4337 92.4233 42.2712 92.3691 42.1191" fill="white"/>
<path d="M91.3395 43.6007L91.3707 43.5922C91.3787 43.5893 91.3867 43.5859 91.3947 43.5822L91.2044 43.6057C91.2497 43.6072 91.2951 43.6055 91.3395 43.6007Z" fill="white"/>
<path d="M83.0902 72.3807C83.0456 72.2317 82.9588 72.0961 82.8386 71.9874C82.7728 71.9403 82.707 71.894 82.6412 71.8477C82.4919 71.7667 82.3213 71.7243 82.1477 71.725C82.0167 71.7209 81.8868 71.7489 81.7716 71.8063C81.6505 71.841 81.5419 71.9046 81.4569 71.9907C81.2828 72.163 81.181 72.386 81.1697 72.6203C81.1813 72.7016 81.1937 72.7788 81.2053 72.8584C81.2504 73.0074 81.3371 73.1432 81.4569 73.2524L81.6543 73.3922C81.8038 73.4725 81.9743 73.5146 82.1477 73.514C82.2783 73.5192 82.4079 73.4928 82.5238 73.4377C82.6987 73.3681 82.8481 73.2542 82.9544 73.1096C83.0608 72.9649 83.1196 72.7954 83.124 72.6211L83.0893 72.3839" fill="white"/>
<path d="M88.1628 157.569C88.1018 157.368 87.985 157.185 87.824 157.037L87.5573 156.85C87.3557 156.742 87.1264 156.686 86.8931 156.687C86.5467 156.695 86.217 156.825 85.9719 157.049C85.7267 157.273 85.5849 157.573 85.5754 157.89C85.5914 157.998 85.6065 158.104 85.6225 158.211C85.6835 158.412 85.8005 158.595 85.9623 158.742L86.2289 158.93C86.4309 159.037 86.6605 159.094 86.894 159.093C87.2405 159.084 87.5701 158.955 87.815 158.73C88.06 158.506 88.2016 158.205 88.2109 157.889C88.1949 157.783 88.1788 157.676 88.1628 157.569Z" fill="white"/>
<path d="M28.1429 162.576C28.114 162.503 28.0811 162.432 28.0442 162.363C28.0173 162.325 27.9876 162.288 27.9553 162.253C27.9284 162.216 27.8988 162.18 27.8664 162.146C27.802 162.094 27.7344 162.045 27.6637 162C27.6462 161.989 27.6277 161.979 27.6085 161.971C27.5215 161.93 27.43 161.896 27.3356 161.871C27.2405 161.853 27.1438 161.841 27.0466 161.838C26.9492 161.84 26.8521 161.851 26.7568 161.87L26.5585 161.946C26.4635 161.992 26.3831 162.059 26.3246 162.142C26.2733 162.189 26.2363 162.247 26.2171 162.311C26.1653 162.401 26.1408 162.502 26.1459 162.604C26.1548 162.671 26.1655 162.739 26.1762 162.806C26.2037 162.867 26.2313 162.928 26.2597 162.988C26.2979 163.042 26.3456 163.09 26.4011 163.129L26.3771 163.078L26.3664 162.996C26.3738 163.027 26.3843 163.058 26.3975 163.087C26.402 163.102 26.4029 163.119 26.4091 163.132L26.4162 163.139C26.4226 163.164 26.4309 163.188 26.4411 163.212L26.4135 163.152C26.4216 163.17 26.418 163.191 26.4269 163.209C26.4715 163.274 26.5165 163.338 26.562 163.401C26.5825 163.423 26.5887 163.453 26.6127 163.473C26.6212 163.481 26.6307 163.489 26.6412 163.494L26.6252 163.459C26.6627 163.508 26.7093 163.551 26.763 163.586C26.8231 163.613 26.8848 163.637 26.9479 163.658L26.7816 163.594C26.8509 163.636 26.9276 163.667 27.0084 163.685L27.2458 163.714C27.3273 163.715 27.4085 163.705 27.4867 163.684C27.7067 163.618 27.8952 163.486 28.0202 163.308L28.0255 163.3L28.0344 163.285C28.084 163.204 28.1214 163.118 28.1456 163.029C28.158 162.948 28.1696 162.875 28.1802 162.797C28.1687 162.722 28.158 162.646 28.1474 162.571" fill="white"/>
<path d="M26.3949 163.131L26.4064 163.159V163.138L26.3984 163.131" fill="white"/>
<path d="M1.81313 215.731C1.63259 215.634 1.42712 215.583 1.21786 215.583C1.00859 215.583 0.803121 215.634 0.622587 215.731C0.603026 215.739 0.584354 215.748 0.566571 215.757C0.396582 215.848 0.254874 215.977 0.154904 216.132C0.0534547 216.293 4.57764e-05 216.475 4.57764e-05 216.66C4.57764e-05 216.845 0.0534547 217.027 0.154904 217.188C0.254942 217.343 0.396618 217.473 0.566571 217.564L0.622587 217.59C0.7566 217.666 0.905712 217.715 1.06118 217.737C1.21664 217.759 1.37532 217.753 1.5279 217.718C1.68046 217.683 1.82386 217.62 1.94966 217.534C2.07545 217.447 2.18111 217.339 2.26043 217.215C2.33974 217.091 2.39113 216.953 2.41155 216.811C2.43197 216.669 2.42103 216.524 2.37936 216.385C2.33769 216.247 2.26614 216.117 2.16891 216.004C2.07167 215.892 1.95071 215.797 1.81313 215.727" fill="white"/>
<path d="M27.5667 239.562C27.5507 239.49 27.5347 239.42 27.5178 239.349C27.5107 239.315 27.5027 239.281 27.4947 239.248C27.4645 239.138 27.4194 239.033 27.3604 238.933C27.2604 238.77 27.1081 238.64 26.9242 238.56C26.7403 238.479 26.5338 238.453 26.3326 238.483C26.1963 238.488 26.0642 238.527 25.9494 238.595C25.7181 238.72 25.5486 238.921 25.4764 239.158L25.4381 239.408C25.4386 239.575 25.4874 239.739 25.5795 239.883C25.661 240.007 25.7594 240.121 25.872 240.223L26.0232 240.381L26.2099 240.514C26.3125 240.575 26.431 240.609 26.5531 240.614C26.6335 240.634 26.7182 240.634 26.7985 240.614C26.9207 240.609 27.0392 240.575 27.1417 240.514C27.2748 240.436 27.3879 240.333 27.4733 240.211C27.5403 240.117 27.5782 240.008 27.5827 239.897C27.6101 239.786 27.6046 239.67 27.5667 239.561" fill="white"/>
<path d="M5.93695 270.256C5.87271 270.042 5.74865 269.845 5.57685 269.688L5.29233 269.488C5.07643 269.373 4.8309 269.312 4.58102 269.313C4.21206 269.327 3.86045 269.46 3.58876 269.688C3.33867 269.937 3.19311 270.258 3.17798 270.595C3.19398 270.708 3.21088 270.823 3.22866 270.935C3.29244 271.151 3.41657 271.347 3.58876 271.504C3.683 271.572 3.77814 271.637 3.87328 271.704C4.08881 271.82 4.33453 271.88 4.58458 271.88C4.95353 271.866 5.30516 271.732 5.57685 271.504C5.82569 271.256 5.97105 270.935 5.98763 270.597C5.97073 270.485 5.95473 270.37 5.93695 270.257" fill="white"/>
<path d="M13.0784 344.613C13.071 344.46 13.0432 344.309 12.9957 344.162C12.9453 344.02 12.8779 343.885 12.7948 343.756C12.7165 343.655 12.6303 343.551 12.5423 343.457C12.5254 343.439 12.5076 343.424 12.4898 343.407C12.297 343.226 12.0478 343.104 11.7763 343.057C11.5047 343.01 11.224 343.04 10.9721 343.144C10.8017 343.196 10.6487 343.286 10.5275 343.407L10.3106 343.664C10.1854 343.859 10.1199 344.08 10.1212 344.305C10.1372 344.417 10.1541 344.529 10.1701 344.642C10.2137 344.775 10.2814 344.901 10.3701 345.015C10.367 345.038 10.3655 345.061 10.3657 345.085V345.074C10.3652 345.083 10.3652 345.092 10.3657 345.101C10.3657 345.114 10.3657 345.128 10.3657 345.141C10.3719 345.27 10.4128 345.395 10.4847 345.506C10.5568 345.617 10.6575 345.71 10.7782 345.778C10.8049 345.792 10.8423 345.807 10.8769 345.821C10.9116 345.836 10.9116 345.851 10.9347 345.862L11.181 345.957C11.205 345.964 11.2281 345.957 11.2521 345.965C11.3792 346.006 11.5134 346.025 11.6478 346.02C11.7154 346.02 11.9279 345.992 11.9946 345.978C12.2136 345.926 12.4132 345.821 12.5725 345.674C12.6051 345.64 12.6348 345.603 12.6614 345.565L12.6783 345.553C12.8479 345.401 12.9705 345.21 13.034 345C13.0509 344.889 13.0669 344.777 13.0829 344.667C13.0829 344.647 13.0829 344.626 13.0829 344.605" fill="white"/>
<path d="M250.968 128.941C250.937 128.864 250.897 128.791 250.849 128.723L250.751 128.588C250.612 128.363 250.401 128.183 250.147 128.071C249.893 127.961 249.606 127.924 249.328 127.967C249.14 127.974 248.957 128.028 248.799 128.121L248.51 128.326C248.336 128.485 248.21 128.683 248.144 128.9L248.092 129.246C248.092 129.477 248.16 129.704 248.287 129.904C248.325 129.948 248.363 129.994 248.402 130.04L248.557 130.225C248.658 130.365 248.795 130.48 248.956 130.558L249.294 130.688C249.424 130.72 249.558 130.736 249.693 130.738L250.062 130.692C250.238 130.655 250.4 130.577 250.533 130.465C250.636 130.41 250.721 130.331 250.783 130.237C250.905 130.116 250.991 129.967 251.031 129.805C251.046 129.742 251.056 129.678 251.061 129.613C251.095 129.385 251.061 129.154 250.965 128.942" fill="white"/>
<path d="M307.01 89.0685L306.935 88.906C306.889 88.8272 306.822 88.7597 306.74 88.7118C306.694 88.6695 306.636 88.6387 306.573 88.6224C306.515 88.5907 306.449 88.5745 306.383 88.5753C306.317 88.5582 306.247 88.5582 306.182 88.5753C306.082 88.5794 305.985 88.607 305.901 88.6565C305.834 88.6899 305.773 88.7321 305.718 88.7817C305.655 88.8393 305.605 88.9076 305.571 88.9831L305.589 88.9433C305.579 88.9628 305.567 88.9807 305.553 88.9986C305.533 89.0197 305.51 89.04 305.487 89.0587L305.501 89.049C305.437 89.0936 305.384 89.1489 305.342 89.2115C305.337 89.2139 305.331 89.2163 305.325 89.2196C305.308 89.235 305.292 89.2513 305.278 89.2691C305.244 89.2732 305.213 89.287 305.189 89.3089C305.164 89.3333 305.148 89.365 305.142 89.3991C305.138 89.4333 305.144 89.4674 305.162 89.4974L305.171 89.508C305.159 89.5722 305.164 89.6372 305.187 89.6989C305.227 89.7785 305.29 89.8468 305.37 89.8947C305.407 89.9159 305.447 89.9337 305.488 89.9484C305.544 90.0003 305.612 90.041 305.685 90.0694C305.759 90.097 305.838 90.1108 305.918 90.1108C305.997 90.1052 306.075 90.0962 306.152 90.0832C306.201 90.0759 306.249 90.0653 306.295 90.0499C306.399 90.019 306.497 89.9792 306.591 89.9297C306.609 89.9191 306.626 89.9077 306.645 89.8964C306.701 89.8598 306.755 89.8208 306.809 89.7802L306.929 89.638C306.974 89.5787 307.002 89.5112 307.012 89.4398C307.021 89.3788 307.031 89.3179 307.039 89.2561C307.031 89.1952 307.022 89.1335 307.012 89.0725" fill="white"/>
<path d="M305.63 176.28C305.571 176.085 305.457 175.906 305.301 175.763C305.212 175.702 305.127 175.641 305.041 175.58C304.845 175.473 304.621 175.417 304.394 175.417C304.057 175.425 303.736 175.551 303.497 175.769C303.259 175.987 303.121 176.28 303.112 176.588L303.157 176.899C303.216 177.095 303.33 177.273 303.488 177.416L303.747 177.599C303.943 177.706 304.167 177.762 304.395 177.762C304.732 177.754 305.053 177.628 305.291 177.41C305.529 177.192 305.667 176.899 305.676 176.591L305.63 176.28Z" fill="white"/>
<path d="M279.202 214.928C279.103 214.773 278.963 214.646 278.795 214.556L278.727 214.527C278.686 214.496 278.644 214.466 278.599 214.44C278.548 214.414 278.492 214.401 278.435 214.401C278.377 214.401 278.321 214.414 278.27 214.44C278.054 214.422 277.838 214.464 277.648 214.558L277.593 214.587C277.472 214.621 277.354 214.665 277.242 214.721C277.173 214.76 277.1 214.795 277.025 214.824L277.001 214.834C276.973 214.852 276.946 214.871 276.92 214.89C276.893 214.91 276.846 214.938 276.807 214.96C276.769 214.982 276.764 215.003 276.736 215.02C276.709 215.038 276.682 215.059 276.656 215.078L276.732 215.025C276.473 215.183 276.283 215.419 276.193 215.692C276.178 215.8 276.162 215.908 276.146 216.017C276.138 216.18 276.177 216.342 276.261 216.487C276.292 216.588 276.351 216.682 276.433 216.757C276.527 216.889 276.656 216.998 276.808 217.072L277.128 217.195C277.361 217.252 277.607 217.252 277.84 217.195C277.884 217.186 277.929 217.178 277.975 217.166L278.034 217.148C278.219 217.106 278.389 217.026 278.533 216.913C278.651 216.835 278.759 216.747 278.858 216.65C278.942 216.563 279.021 216.468 279.09 216.37C279.147 216.264 279.196 216.156 279.237 216.045C279.25 216.012 279.261 215.979 279.272 215.945C279.315 215.782 279.342 215.616 279.356 215.449C279.357 215.265 279.303 215.085 279.201 214.926" fill="white"/>
<path d="M321.915 258.23C321.877 258.121 321.806 258.022 321.713 257.944C321.646 257.897 321.581 257.85 321.516 257.804C321.366 257.724 321.196 257.682 321.022 257.681L320.762 257.714C320.599 257.754 320.45 257.834 320.331 257.944C320.308 257.959 320.287 257.975 320.265 257.992C320.177 258.052 320.105 258.129 320.051 258.217C319.975 258.316 319.916 258.425 319.878 258.542C319.833 258.69 319.833 258.847 319.875 258.997C319.919 259.145 320.004 259.282 320.123 259.391C320.242 259.5 320.392 259.578 320.554 259.618C320.718 259.657 320.89 259.656 321.052 259.616C321.181 259.58 321.303 259.525 321.412 259.453C321.509 259.405 321.593 259.339 321.659 259.259L321.711 259.198C321.851 259.074 321.944 258.914 321.981 258.74C322.017 258.565 321.993 258.385 321.913 258.223" fill="white"/>
<path d="M289.645 293.672C289.519 293.553 289.362 293.463 289.19 293.41C289.018 293.358 288.835 293.343 288.655 293.368C288.573 293.354 288.489 293.354 288.407 293.368C288.225 293.376 288.048 293.427 287.894 293.517C287.864 293.537 287.834 293.553 287.805 293.57C287.766 293.595 287.729 293.623 287.693 293.651C287.589 293.709 287.491 293.778 287.403 293.856C287.359 293.892 287.322 293.935 287.293 293.983C287.248 294.018 287.211 294.061 287.187 294.111L287.172 294.138L287.046 294.411C286.994 294.558 286.986 294.714 287.024 294.866C287.025 294.967 287.056 295.067 287.113 295.154C287.162 295.295 287.251 295.421 287.37 295.522C287.538 295.684 287.75 295.801 287.986 295.858C288.13 295.889 288.277 295.906 288.425 295.908C288.73 295.91 289.03 295.836 289.294 295.696L289.574 295.498C289.705 295.388 289.804 295.248 289.858 295.092C289.92 294.996 289.953 294.886 289.952 294.774V294.76L289.958 294.74C290.012 294.553 290.013 294.355 289.959 294.168C289.904 293.981 289.798 293.809 289.649 293.671" fill="white"/>
<path d="M319.319 348.285L319.15 348.086C319.018 347.966 318.855 347.879 318.676 347.834L318.39 347.799C318.225 347.8 318.062 347.838 317.915 347.907L317.826 347.917L317.749 347.929C317.679 347.947 317.615 347.981 317.563 348.029C317.512 348.076 317.475 348.134 317.456 348.199C317.451 348.221 317.447 348.246 317.443 348.268C317.44 348.291 317.434 348.33 317.429 348.361C317.424 348.376 317.41 348.387 317.405 348.403C317.326 348.583 317.305 348.779 317.344 348.97C317.384 349.16 317.482 349.336 317.627 349.477L317.844 349.631C318.092 349.755 318.383 349.788 318.657 349.722C318.931 349.656 319.167 349.497 319.316 349.277C319.352 349.196 319.388 349.121 319.425 349.043C319.47 348.916 319.476 348.78 319.444 348.65C319.439 348.52 319.394 348.394 319.317 348.285" fill="white"/>
<path d="M121.629 406.221C121.68 406.203 121.734 406.186 121.788 406.174C121.76 406.181 121.71 406.196 121.629 406.221Z" fill="#82B5C8"/>
<path d="M63.7864 303.499C51.856 301.724 39.37 303.245 27.9936 319.724C16.6172 336.203 29.9372 360.797 47.4166 368.403C64.896 376.008 136.203 387.164 137.591 386.911C138.979 386.657 147.58 338.232 145.638 337.725C143.696 337.218 63.7872 303.498 63.7872 303.498" fill="#5A4E62"/>
<path d="M255.684 301.723C267.614 299.949 280.1 301.469 291.475 317.948C302.851 334.427 284.875 363.838 267.395 371.445C249.916 379.051 184.434 390.966 183.047 390.713C181.66 390.459 171.891 336.456 173.833 335.953C175.775 335.45 255.684 301.726 255.684 301.726" fill="#5A4E62"/>
<path d="M222.371 334.234C239.004 335.428 242.021 338.703 244.807 344.921C247.593 351.14 250.853 361.894 243.439 369.547C236.026 377.199 178.463 394.374 174.239 394.744C170.016 395.115 158.946 379.163 158.801 374.868C158.656 370.572 218.995 333.992 222.374 334.234" fill="#3B8C67"/>
<path d="M154.128 390.46C157.848 390.673 161.504 391.444 164.95 392.742C169.388 394.517 170.499 397.052 178.545 398.32C186.59 399.587 199.909 400.602 203.517 396.545C207.124 392.489 188.533 383.615 181.042 380.573C173.551 377.53 157.735 370.686 156.903 371.192C156.071 371.698 154.128 390.46 154.128 390.46Z" fill="#FBC8AB"/>
<path d="M95.6625 335.45C78.9389 338.201 76.2306 341.869 74.0718 348.562C71.913 355.255 69.7542 366.696 78.0809 373.95C86.4076 381.203 146.555 393.756 150.874 393.756C155.192 393.756 162.594 378.135 162.286 373.667C161.977 369.198 99.0554 334.889 95.6625 335.446" fill="#3B8C67"/>
<path d="M133.004 150.289C131.894 150.542 98.8767 161.698 85.8358 173.614C72.795 185.529 56.7613 234.397 55.6205 246.346C54.4798 258.294 62.2525 293.536 66.9685 299.874C71.6844 306.213 249.26 302.663 249.26 302.663C249.26 302.663 264.798 263.618 266.186 244.857C267.574 226.096 242.047 176.91 235.387 169.051C228.728 161.191 198.485 148.258 198.485 148.258L133.004 150.289Z" fill="#FFC258"/>
<path d="M139.928 260.145C132.054 262.385 124.646 265.813 118.009 270.287C107.187 277.639 97.2034 302.485 97.2034 302.485L161.851 343.304C161.851 343.304 220.118 305.524 219.289 305.274C218.459 305.024 211.798 280.174 205.138 274.596C198.479 269.017 179.058 258.877 179.058 258.877L139.928 260.145Z" fill="#3B8C67"/>
<path d="M66.7818 299.981C66.7818 299.22 64.0068 298.206 68.7237 292.121C73.4405 286.036 88.978 284.262 94.8045 286.29C100.631 288.318 103.406 292.627 104.516 299.22C105.625 305.814 101.464 306.827 100.354 306.066C99.2448 305.306 79.267 305.558 77.8799 305.305C76.4929 305.051 66.7818 299.981 66.7818 299.981Z" fill="#FBC8AB"/>
<path d="M108.413 83.5171C108.413 83.5171 94.3706 136.211 126.802 152.489C159.233 168.767 195.282 154.054 195.282 154.054C195.282 154.054 225.913 142.579 212.976 81.1512C212.976 81.1512 167.67 63.8687 165.816 63.1959C163.962 62.5232 131.59 67.8034 130.542 67.8269C129.495 67.8505 108.413 83.5171 108.413 83.5171Z" fill="#6E3517"/>
<path d="M206.288 124.542C206.288 124.542 215.28 123.892 216.246 114.749C217.213 105.607 207.671 103.819 207.671 103.819C202.389 99.7124 195.799 85.8438 195.799 85.8438L177.329 86.93C177.329 86.93 131.231 83.9686 127.506 90.2822C123.78 96.5958 113.809 105.943 113.809 105.943C113.809 105.943 104.373 108.16 105.837 117.248C107.3 126.337 116.315 126.578 116.315 126.578C116.315 126.578 125.752 167.544 162.982 166.701C200.213 165.859 206.291 124.543 206.291 124.543" fill="#FBC8AB"/>
<path d="M104.493 307.638C104.493 307.638 107.355 301.711 113.22 299.543C119.086 297.374 125.003 297.755 129.383 301.364C133.763 304.973 133.828 316.201 133.667 319.282C133.505 322.363 108.407 314.107 107.971 312.879C107.534 311.65 104.496 307.638 104.496 307.638" fill="#FBC8AB"/>
<path d="M114.401 212.25C114.401 212.25 106.073 244.448 130.772 254.59C155.47 264.732 182.933 259.155 188.484 256.873C194.035 254.59 208.46 239.125 202.633 210.731C202.633 210.731 171.834 200.332 171.002 200.332C170.17 200.332 130.771 203.882 129.938 204.135C129.104 204.389 114.4 212.248 114.4 212.248" fill="#6E3517"/>
<path d="M55.5815 307.808C55.8589 307.049 64.1829 300.455 68.345 297.414C72.507 294.372 101.917 297.667 118.565 305.782C135.213 313.897 158.676 336.965 158.676 336.965C158.676 336.965 183.117 313.433 202.913 305.273C216.363 299.732 230.893 296.715 245.642 296.399C250.635 296.145 262.567 305.78 261.735 305.78C260.903 305.78 169.621 359.275 163.514 360.036C157.406 360.797 147.976 360.544 146.866 360.036C145.755 359.528 55.5815 307.808 55.5815 307.808Z" fill="white"/>
<path d="M50.5899 308.569C51.1322 307.381 51.9906 306.336 53.0875 305.527C55.0293 304.006 144.372 352.178 150.476 354.206C153.788 355.217 157.292 355.603 160.773 355.342C164.254 355.08 167.642 354.176 170.73 352.684C176.556 349.642 257.713 304.09 260.905 303.245C264.097 302.4 265.621 306.795 266.454 308.062C267.286 309.33 156.024 368.404 156.024 368.404L50.5899 308.569Z" fill="#292942"/>
<path d="M38.7982 300.455C36.7194 299.744 32.6943 309.329 35.1919 310.597C37.6895 311.866 202.778 397.559 206.107 398.319C209.435 399.079 216.095 398.066 218.037 397.305C219.979 396.544 41.0175 301.217 38.7982 300.455Z" fill="#FFC258"/>
<path d="M275.789 300.455C277.867 299.744 281.892 309.329 279.395 310.597C276.897 311.866 111.81 397.559 108.48 398.319C105.15 399.079 98.4917 398.066 96.5499 397.305C94.608 396.544 273.568 301.216 275.789 300.455Z" fill="#FFC258"/>
<path d="M193.781 226.427C193.781 226.427 200.983 226.615 200.741 232.544C200.499 238.474 193.781 240.074 193.781 240.074C193.781 240.074 186.196 269.722 159.105 269.958C130.412 270.207 123.934 239.604 123.934 239.604C123.934 239.604 116.478 239.368 115.732 232.309C114.986 225.249 122.941 225.015 122.941 225.015C122.941 225.015 130.148 218.898 132.883 211.604C135.618 204.311 184.585 210.192 184.585 210.192C184.585 210.192 189.556 221.956 193.782 226.427" fill="#FBC8AB"/>
<path d="M114.401 212.163C114.401 212.163 168.783 223.065 202.634 210.642C202.634 210.642 202.079 192.894 191.535 182.246C180.99 171.598 142.979 171.09 129.661 181.993C118.847 190.848 114.401 212.163 114.401 212.163Z" fill="white"/>
<path d="M108.413 83.4203C108.413 83.4203 162.767 115.216 212.975 81.0545C212.975 81.0545 212.614 59.4431 199.669 46.2228C186.724 33.0025 142.701 32.606 127.061 45.7199C111.421 58.8338 108.416 83.4179 108.416 83.4179" fill="#F8F8F8"/>
<path d="M115.367 117.921C115.172 117.175 114.886 116.452 114.514 115.766C114.192 115.053 113.785 114.374 113.299 113.743C112.771 113.043 112.067 112.471 111.245 112.075C110.808 111.877 110.333 111.761 109.847 111.733C109.624 111.713 109.4 111.769 109.219 111.89C109.127 111.96 109.044 112.04 108.973 112.128L108.96 112.157C108.944 112.166 108.93 112.178 108.919 112.193C108.868 112.246 108.839 112.315 108.837 112.386C108.834 112.458 108.86 112.527 108.909 112.583L108.916 112.623C108.943 112.704 108.987 112.78 109.044 112.847C109.165 112.999 109.337 113.114 109.534 113.172C109.816 113.281 110.087 113.412 110.346 113.562C110.874 113.866 111.324 114.271 111.663 114.749C112.035 115.284 112.343 115.854 112.581 116.448C112.688 116.704 112.803 116.968 112.91 117.236C112.536 117.244 112.168 117.318 111.826 117.456C111.428 117.585 111.068 117.795 110.771 118.071C110.476 118.347 110.254 118.681 110.122 119.047C110.027 119.441 110.047 119.851 110.177 120.237C110.306 120.623 110.543 120.971 110.863 121.248C111.184 121.526 111.577 121.724 112.006 121.822C112.433 121.92 112.882 121.916 113.308 121.81C115.111 121.35 115.68 119.415 115.365 117.924" fill="#FBA383"/>
<path d="M211.349 114.598C211.011 114.516 210.659 114.499 210.314 114.548C210.316 114.178 210.341 113.808 210.388 113.44C210.446 112.854 210.639 112.286 210.954 111.773C211.247 111.335 211.657 110.971 212.147 110.717C212.354 110.592 212.505 110.404 212.574 110.186C212.643 109.968 212.625 109.735 212.523 109.529C212.421 109.322 212.242 109.155 212.018 109.058C211.794 108.961 211.538 108.94 211.299 108.999C210.665 109.2 210.09 109.533 209.621 109.971C209.15 110.409 208.797 110.94 208.589 111.523C208.125 112.778 207.927 114.101 208.004 115.423C207.957 115.948 208.032 116.475 208.224 116.971C208.416 117.467 208.721 117.921 209.119 118.301C209.391 118.507 209.711 118.655 210.054 118.734C210.397 118.813 210.755 118.82 211.102 118.756C211.449 118.692 211.775 118.558 212.058 118.363C212.34 118.169 212.572 117.92 212.735 117.633C212.908 117.357 213.008 117.049 213.029 116.732C213.051 116.414 212.992 116.097 212.859 115.804C212.724 115.511 212.519 115.249 212.258 115.04C211.995 114.832 211.685 114.68 211.349 114.598" fill="#FBA383"/>
<path d="M121.042 230.499C120.726 230.156 120.371 229.846 119.981 229.575C119.511 229.242 118.923 228.806 118.292 229.019C118.152 229.057 118.027 229.13 117.931 229.231C117.836 229.332 117.774 229.456 117.754 229.588C117.732 229.721 117.754 229.858 117.817 229.98C117.881 230.101 117.982 230.203 118.109 230.272C118.398 230.418 118.667 230.596 118.91 230.802C119.197 231.029 119.463 231.278 119.705 231.546C119.731 231.575 119.739 231.585 119.745 231.591C119.752 231.596 119.756 231.606 119.777 231.636C119.835 231.713 119.893 231.787 119.948 231.864C120.049 232.007 120.14 232.155 120.224 232.306L120.271 232.397C119.982 232.492 119.718 232.642 119.496 232.837C119.274 233.032 119.1 233.268 118.985 233.528C118.87 233.789 118.815 234.069 118.827 234.35C118.838 234.631 118.913 234.906 119.048 235.159C119.193 235.399 119.405 235.599 119.661 235.742C119.918 235.884 120.21 235.961 120.51 235.967C120.814 235.959 121.11 235.876 121.367 235.727C121.624 235.578 121.832 235.368 121.969 235.12C122.873 233.548 122.202 231.78 121.037 230.5" fill="#FBA383"/>
<path d="M198.726 234.147C198.629 233.85 198.434 233.589 198.169 233.397C197.903 233.205 197.578 233.092 197.24 233.075C197.134 233.072 197.027 233.085 196.925 233.114C196.959 232.973 196.999 232.832 197.045 232.695C197.078 232.549 197.133 232.409 197.206 232.276L197.187 232.302C197.203 232.28 197.217 232.257 197.226 232.241C197.259 232.173 197.295 232.107 197.333 232.042C197.492 231.757 197.727 231.506 197.874 231.219C198 231.02 198.041 230.785 197.992 230.559C197.943 230.333 197.806 230.131 197.606 229.99C197.407 229.849 197.158 229.779 196.906 229.793C196.654 229.806 196.417 229.902 196.236 230.063C195.938 230.329 195.692 230.639 195.509 230.981C195.3 231.326 195.123 231.687 194.982 232.059C194.71 232.709 194.591 233.403 194.631 234.098C194.635 234.512 194.761 234.917 194.996 235.271C195.231 235.625 195.565 235.915 195.964 236.111C196.402 236.319 196.908 236.376 197.387 236.27C197.866 236.163 198.288 235.902 198.572 235.533C198.712 235.327 198.798 235.096 198.825 234.856C198.852 234.615 198.818 234.373 198.728 234.146" fill="#FBA383"/>
<path d="M126.256 91.2558C125.311 91.2883 124.79 92.3932 124.332 93.0026C122.027 96.0745 119.4 98.9335 116.486 101.538C114.899 103.075 113.121 104.439 111.189 105.601C110.202 106.096 109.161 106.493 108.083 106.784C107.888 106.846 106.676 107.149 106.861 107.543C107.461 108.822 110.122 107.994 111.084 107.612C112.768 106.886 114.33 105.942 115.719 104.808C118.813 102.409 121.621 99.7175 124.093 96.7781C124.686 96.0818 125.263 95.3758 125.816 94.6543C126.319 94.0043 127.353 93.018 127.288 92.1552C127.28 91.9106 127.167 91.6791 126.973 91.5109C126.779 91.3419 126.521 91.2509 126.253 91.2558" fill="#582B01"/>
<path d="M214.697 103.694C213.878 103.511 213.046 103.38 212.208 103.304C211.364 103.118 210.56 102.802 209.831 102.372C208.323 101.411 207.001 100.226 205.919 98.8684C204.766 97.5465 203.693 96.1678 202.705 94.7395C202.199 94.0074 201.71 93.2657 201.238 92.5141C200.811 91.6936 200.325 90.8998 199.783 90.1385C199.669 89.9825 199.499 89.8688 199.302 89.8176C199.106 89.7656 198.895 89.7802 198.708 89.8566C198.522 89.9338 198.371 90.0695 198.284 90.2385C198.196 90.4074 198.177 90.6 198.231 90.7804C198.563 91.7163 199.016 92.6133 199.581 93.4509C200.086 94.334 200.629 95.1985 201.208 96.0435C202.333 97.6887 203.571 99.2681 204.912 100.772C206.143 102.272 207.688 103.533 209.457 104.482C210.309 104.907 211.232 105.199 212.188 105.35C212.678 105.476 213.194 105.494 213.693 105.403C214.193 105.312 214.662 105.115 215.062 104.827C215.551 104.463 215.151 103.852 214.702 103.69" fill="#582B01"/>
<path d="M129.68 215.119C128.743 216.356 127.916 217.66 127.206 219.019C126.507 220.175 125.911 221.597 124.704 222.395C123.407 223.148 122.018 223.76 120.566 224.22C119.134 224.755 117.467 225.119 116.618 226.391C116.596 226.427 116.584 226.466 116.581 226.507C116.578 226.548 116.586 226.589 116.603 226.627C116.62 226.665 116.647 226.698 116.68 226.726C116.714 226.752 116.754 226.773 116.796 226.784C118.413 227.348 120.124 226.51 121.618 225.939C123.186 225.434 124.68 224.751 126.064 223.908C127.249 222.944 128.182 221.751 128.796 220.414L130.066 218.193C130.529 217.48 130.927 216.732 131.258 215.96C131.539 215.177 130.271 214.432 129.678 215.119" fill="#582B01"/>
<path d="M200.577 227.297C199.934 226.631 198.977 226.853 198.112 226.669C197.319 226.499 196.564 226.205 195.882 225.799C194.451 224.859 193.2 223.71 192.179 222.397C191.087 221.19 190.155 219.87 189.4 218.465C189.068 217.761 188.792 217.037 188.573 216.298C188.425 215.844 188.147 214.782 187.379 215.125C186.611 215.469 186.84 216.712 186.961 217.331C187.153 218.17 187.454 218.985 187.858 219.758C188.686 221.363 189.724 222.869 190.95 224.244C192.07 225.676 193.474 226.904 195.089 227.864C195.958 228.351 196.922 228.68 197.928 228.835C198.895 228.97 200.207 229.114 200.694 228.135C200.773 228.001 200.803 227.848 200.782 227.698C200.76 227.548 200.689 227.407 200.576 227.296" fill="#582B01"/>
<path d="M118.471 217.994C118.431 218.015 118.403 218.031 118.391 218.038L118.471 217.994Z" fill="#582B01"/>
<path d="M121.08 216.174C121.047 216.035 120.968 215.908 120.854 215.81L120.837 215.784C120.793 215.718 120.731 215.663 120.656 215.625C120.582 215.587 120.498 215.567 120.413 215.567C120.328 215.567 120.244 215.587 120.17 215.625C120.095 215.663 120.033 215.718 119.988 215.784L119.975 215.805C119.873 215.897 119.795 216.008 119.746 216.13C119.737 216.155 119.665 216.293 119.722 216.191L119.735 216.17C119.724 216.188 119.708 216.215 119.704 216.225C119.661 216.313 119.629 216.388 119.593 216.478L119.569 216.535V216.542C119.524 216.633 119.487 216.717 119.45 216.809C119.442 216.831 119.433 216.853 119.423 216.876C119.441 216.837 119.456 216.815 119.418 216.891L119.414 216.898C119.409 216.91 119.402 216.923 119.399 216.934L119.411 216.904C119.376 216.973 119.339 217.042 119.297 217.109C119.216 217.239 119.127 217.365 119.031 217.486C119.007 217.511 118.983 217.536 118.959 217.561C118.895 217.627 118.825 217.69 118.757 217.753C118.688 217.815 118.643 217.858 118.583 217.908L118.479 217.989L118.502 217.977L118.478 217.991H118.474C118.434 218.023 118.362 218.055 118.399 218.032C117.969 218.269 117.492 218.627 117.548 219.108C117.547 219.176 117.563 219.242 117.595 219.303C117.626 219.364 117.673 219.417 117.732 219.458C117.868 219.575 118.036 219.656 118.219 219.694C118.401 219.73 118.591 219.721 118.768 219.668C119.011 219.6 119.238 219.492 119.437 219.349C119.86 219.077 120.225 218.737 120.513 218.344C120.761 218.003 120.949 217.629 121.073 217.236C121.139 217.015 121.165 216.785 121.149 216.557C121.139 216.425 121.117 216.295 121.085 216.167" fill="#582B01"/>
<path d="M119.421 216.877C119.417 216.886 119.413 216.895 119.409 216.905V216.901L119.418 216.878" fill="#582B01"/>
<path d="M124.584 216.498C124.581 216.363 124.535 216.231 124.453 216.119C124.37 216.007 124.253 215.919 124.118 215.866C123.98 215.81 123.828 215.795 123.681 215.821C123.533 215.846 123.397 215.912 123.291 216.009C122.825 216.684 122.414 217.39 122.063 218.121C121.672 218.768 121.192 219.367 120.635 219.902C120.081 220.437 119.465 220.916 118.797 221.329C118.46 221.542 118.113 221.74 117.781 221.958C117.423 222.167 117.094 222.415 116.802 222.696C116.514 222.913 116.104 223.311 116.523 223.558C117.012 223.732 117.55 223.75 118.052 223.609C119.257 223.339 120.356 222.767 121.226 221.957C122.077 221.255 122.815 220.445 123.416 219.552C123.707 219.117 123.964 218.664 124.181 218.195C124.467 217.669 124.605 217.087 124.583 216.5" fill="#582B01"/>
<path d="M200.836 224.994C200.157 224.178 199.08 223.903 198.135 223.406C197.143 222.898 196.252 222.242 195.498 221.465C194.727 220.614 194.074 219.678 193.557 218.679C193.283 218.182 193.058 217.671 192.826 217.155C192.611 216.679 192.317 215.986 191.781 215.747C191.707 215.71 191.62 215.701 191.539 215.72C191.457 215.74 191.387 215.787 191.342 215.852C191.063 216.412 191.031 217.051 191.253 217.633C191.415 218.265 191.632 218.885 191.9 219.486C192.423 220.709 193.166 221.845 194.097 222.846C194.935 223.778 195.967 224.549 197.133 225.115C198.244 225.624 199.724 226.112 200.796 225.288C200.837 225.249 200.863 225.2 200.871 225.147C200.878 225.094 200.865 225.041 200.836 224.994Z" fill="#582B01"/>
<path d="M200.823 220.965C200.598 220.691 200.34 220.44 200.056 220.215C199.54 219.77 198.985 219.385 198.513 218.893C198.406 218.781 198.303 218.667 198.201 218.551L198.133 218.469C198.077 218.4 198.022 218.33 197.968 218.259C197.771 218 197.589 217.731 197.423 217.454C197.105 216.86 196.729 216.294 196.301 215.761C196.21 215.677 196.093 215.621 195.966 215.599C195.84 215.577 195.708 215.59 195.59 215.637C195.474 215.684 195.375 215.761 195.305 215.857C195.234 215.953 195.194 216.065 195.191 216.181C195.161 216.949 195.378 217.709 195.813 218.366C196.188 219 196.635 219.596 197.147 220.144C197.636 220.714 198.223 221.208 198.885 221.606C199.269 221.831 199.7 221.978 200.151 222.039C200.48 222.108 200.823 222.094 201.144 222C201.207 221.965 201.256 221.913 201.283 221.852C201.311 221.79 201.316 221.722 201.297 221.657C201.187 221.403 201.026 221.169 200.823 220.968" fill="#582B01"/>
<path d="M201.646 216.905C201.612 216.741 201.54 216.585 201.436 216.447C201.331 216.308 201.215 216.178 201.088 216.055C200.926 215.892 200.767 215.725 200.589 215.58C200.462 215.474 200.31 215.383 200.173 215.286C200.05 215.214 199.918 215.156 199.781 215.112C199.682 215.07 199.579 215.037 199.473 215.011L199.369 214.995C199.349 214.992 199.33 214.987 199.31 214.982C199.238 214.969 199.164 214.972 199.094 214.989C198.987 214.935 198.815 215.032 198.908 215.142L198.916 215.151C198.897 215.21 198.891 215.272 198.9 215.332C198.909 215.378 198.921 215.422 198.932 215.467V215.268C198.912 215.493 198.953 215.718 199.051 215.923C199.141 216.152 199.27 216.367 199.434 216.559C199.568 216.721 199.7 216.884 199.83 217.051C200.012 217.326 200.272 217.551 200.584 217.701C200.723 217.796 200.892 217.848 201.065 217.85C201.208 217.847 201.344 217.803 201.458 217.724C201.571 217.646 201.654 217.536 201.694 217.412C201.741 217.243 201.724 217.065 201.647 216.906" fill="#582B01"/>
<path d="M120.446 92.0675C120.214 92.3177 119.922 92.4867 119.698 92.7491C119.482 93.0002 119.286 93.265 119.111 93.5413C118.767 94.0962 118.387 94.6316 117.973 95.1451C117.122 96.198 116.153 97.1673 115.084 98.0382C114.022 98.8905 112.855 99.6266 111.606 100.232C110.451 100.795 108.85 101.08 108.192 102.187C108.149 102.261 108.139 102.348 108.165 102.43C108.19 102.511 108.25 102.579 108.33 102.621C109.697 103.31 111.413 102.358 112.637 101.754C113.995 101.077 115.264 100.26 116.42 99.3203C118.145 97.935 119.575 96.2711 120.639 94.4114C120.822 94.1035 120.964 93.7761 121.059 93.4365C121.118 93.0652 121.145 92.6906 121.138 92.3161C121.134 92.2446 121.108 92.1747 121.061 92.117C121.015 92.0585 120.952 92.0139 120.878 91.9879C120.805 91.9619 120.725 91.9562 120.648 91.9708C120.572 91.9862 120.5 92.0212 120.445 92.0723" fill="#582B01"/>
<path d="M117.564 90.7811C117.535 90.7007 117.475 90.6333 117.393 90.5935C117.312 90.5536 117.217 90.5447 117.128 90.5675C116.382 90.8047 115.945 91.579 115.48 92.1209C114.97 92.7075 114.413 93.2583 113.811 93.7685C113.243 94.243 112.644 94.685 112.017 95.0937C111.676 95.3187 111.354 95.5673 111.054 95.8379C110.765 96.1019 110.46 96.3481 110.158 96.6073C110.13 96.6349 110.113 96.669 110.106 96.7056C110.099 96.7421 110.105 96.7803 110.122 96.8144C110.138 96.8478 110.165 96.877 110.199 96.8973C110.233 96.9176 110.273 96.9282 110.314 96.9282C111.197 96.9046 112.064 96.6958 112.846 96.3188C113.612 95.9029 114.323 95.4056 114.962 94.8385C115.605 94.278 116.183 93.6597 116.69 92.9926C117.156 92.3955 117.804 91.5473 117.564 90.7811Z" fill="#582B01"/>
<path d="M113.572 89.8534L113.586 89.7665C113.596 89.7186 113.591 89.669 113.569 89.6243C113.546 89.5796 113.509 89.5431 113.462 89.5195C113.415 89.496 113.361 89.487 113.308 89.4935C113.255 89.5008 113.206 89.5228 113.168 89.5569C113.141 89.5821 113.113 89.6064 113.085 89.63C112.972 89.6633 112.867 89.7137 112.773 89.7795C112.639 89.8567 112.511 89.9412 112.388 90.033C112.349 90.0647 112.31 90.0955 112.27 90.1264C112.393 90.0314 112.222 90.1581 112.196 90.1735C112.1 90.2385 111.994 90.2922 111.898 90.3572C111.706 90.4928 111.504 90.6171 111.294 90.7293C111.07 90.8414 110.87 90.9852 110.643 91.0965C110.608 91.1136 110.593 91.1469 110.565 91.1712C110.547 91.181 110.527 91.1891 110.507 91.1972L110.491 91.2045L110.476 91.2094C110.398 91.2411 110.318 91.2695 110.238 91.2907C110.088 91.3386 109.943 91.4004 109.793 91.4483C109.644 91.4962 109.579 91.727 109.753 91.7976C110.068 91.9187 110.407 91.9804 110.748 91.9813C110.811 92.0073 110.878 92.0219 110.947 92.0243C111.301 92.0203 111.652 91.9528 111.978 91.8261C112.573 91.6059 113.069 91.2086 113.386 90.6984C113.464 90.5643 113.522 90.4213 113.555 90.2727C113.571 90.215 113.591 90.1573 113.602 90.0988C113.617 90.0151 113.606 89.929 113.571 89.8502" fill="#582B01"/>
<path d="M213.395 99.2243C213.068 99.4681 212.378 98.8295 212.139 98.6833C211.6 98.3534 211.04 98.0463 210.515 97.6961C209.445 96.9698 208.477 96.1264 207.631 95.1856C205.816 93.3812 204.463 91.2306 203.67 88.8891C203.589 88.6015 203.061 88.6689 203.097 88.9703C203.258 90.4498 203.621 91.9041 204.179 93.3007C204.777 94.7575 205.679 96.094 206.835 97.2355C207.949 98.3997 209.276 99.3795 210.756 100.131C211.085 100.32 211.457 100.439 211.842 100.478C212.229 100.517 212.62 100.475 212.986 100.355C213.231 100.293 213.442 100.151 213.579 99.9547C213.717 99.7589 213.769 99.5233 213.728 99.2942C213.7 99.1439 213.494 99.1464 213.395 99.2219" fill="#582B01"/>
<path d="M212.129 92.9903C212.116 92.9562 212.095 92.9253 212.066 92.9009C212.036 92.8765 212.001 92.8595 211.962 92.8514C211.924 92.8432 211.884 92.844 211.846 92.8538C211.809 92.8643 211.774 92.883 211.746 92.909C211.723 92.9277 211.759 92.905 211.751 92.9163C211.771 92.9212 211.768 92.9212 211.74 92.9163L211.674 92.8814C211.633 92.8384 211.596 92.792 211.552 92.7539C211.516 92.7181 211.477 92.6848 211.434 92.6556C211.426 92.6515 211.427 92.6556 211.424 92.6556L211.415 92.6377C211.288 92.4508 211.137 92.2802 211 92.0998C210.645 91.6294 210.298 91.1541 209.933 90.6918C209.548 90.2084 209.171 89.7169 208.756 89.2554C208.585 89.0417 208.394 88.8419 208.187 88.6566C208.052 88.5469 207.909 88.4446 207.759 88.3503C207.613 88.2764 207.455 88.222 207.293 88.1878C207.221 88.1724 207.146 88.1724 207.074 88.1878C207.002 88.2033 206.934 88.2325 206.877 88.2748C206.82 88.317 206.773 88.3707 206.741 88.4324C206.709 88.4933 206.693 88.56 206.694 88.6274V88.6745C206.666 89.0482 206.758 89.4203 206.961 89.7461C207.146 90.0874 207.35 90.4197 207.571 90.7422C208.021 91.4019 208.473 92.0584 208.942 92.7067C209.426 93.3754 209.995 94.2504 211.009 94.213C211.158 94.2073 211.303 94.1683 211.432 94.1001C211.426 94.1115 211.471 94.1001 211.633 94.0132C211.795 93.9335 211.928 93.8133 212.017 93.6671C212.083 93.5671 212.128 93.4566 212.148 93.3413C212.168 93.2259 212.162 93.1081 212.132 92.9943" fill="#582B01"/>
<path d="M211.085 87.1758C211.077 87.164 211.066 87.1539 211.055 87.1455C211.059 87.1455 211.072 87.164 211.082 87.1741" fill="#582B01"/>
<path d="M212.497 88.8598C212.461 88.7883 212.422 88.7185 212.386 88.6478C212.298 88.4885 212.186 88.3431 212.05 88.2155C212.103 88.2675 212.139 88.3139 212.066 88.231L212.004 88.1562C211.931 88.0669 211.854 87.9824 211.77 87.9011C211.661 87.8004 211.558 87.6964 211.457 87.5891C211.453 87.5843 211.44 87.5688 211.427 87.5566L211.419 87.5461C211.343 87.4567 211.264 87.3682 211.183 87.282C211.171 87.2707 211.12 87.2097 211.084 87.174C211.099 87.1943 211.107 87.2073 211.067 87.1602L211.055 87.1472L211.051 87.1423L210.984 87.061C210.884 86.9262 210.764 86.8035 210.629 86.6971C210.562 86.6564 210.499 86.6118 210.439 86.563C210.366 86.4956 210.27 86.4533 210.166 86.4444L210.139 86.4111C210.119 86.3843 210.092 86.364 210.059 86.3534C210.026 86.3428 209.99 86.3412 209.957 86.351C209.924 86.3599 209.894 86.3786 209.874 86.4038C209.853 86.4298 209.842 86.4606 209.842 86.4923V86.55C209.779 86.6061 209.737 86.68 209.724 86.7604C209.716 86.81 209.716 86.9091 209.712 86.94C209.688 87.148 209.713 87.3576 209.784 87.5566C209.896 87.8727 210.047 88.1749 210.235 88.4593C210.418 88.7453 210.647 89.0044 210.914 89.2295C210.978 89.2815 211.045 89.3335 211.112 89.3822C211.249 89.4749 211.402 89.5472 211.564 89.5951C211.628 89.6203 211.694 89.6422 211.761 89.6593C211.898 89.6828 212.042 89.6698 212.171 89.6219C212.233 89.63 212.295 89.6235 212.353 89.6032C212.411 89.5837 212.463 89.5504 212.503 89.5074C212.532 89.4651 212.55 89.418 212.555 89.3684C212.562 89.3189 212.555 89.2685 212.536 89.2222C212.561 89.0979 212.546 88.9703 212.492 88.8541" fill="#582B01"/>
<path d="M117.003 138.854C116.253 137.611 115.521 136.358 114.838 135.084C114.167 133.833 113.514 132.572 112.945 131.28C112.664 130.643 112.412 129.995 112.124 129.361C111.923 128.914 111.718 128.417 111.196 128.244C111.162 128.236 111.126 128.236 111.092 128.245C111.059 128.254 111.028 128.271 111.004 128.295C110.868 128.506 110.785 128.742 110.762 128.987C110.739 129.231 110.778 129.477 110.874 129.706C111.038 130.376 111.246 131.035 111.496 131.682C111.998 133.045 112.578 134.383 113.233 135.691C113.878 136.985 114.573 138.257 115.291 139.52C115.896 140.586 116.54 142.124 117.904 142.514C117.982 142.532 118.064 142.519 118.133 142.482C118.201 142.445 118.251 142.384 118.271 142.313C118.616 141.121 117.607 139.847 117.006 138.854" fill="#582B01"/>
<path d="M117.54 133.525C117.529 133.356 117.497 133.188 117.444 133.027C117.443 132.897 117.419 132.767 117.374 132.644C117.325 132.493 117.285 132.333 117.227 132.186C117.106 131.896 116.968 131.617 116.858 131.32C116.749 131.022 116.609 130.742 116.495 130.449C116.392 130.091 116.204 129.758 115.945 129.474C115.88 129.418 115.801 129.376 115.716 129.352C115.631 129.328 115.541 129.322 115.452 129.335C115.364 129.347 115.279 129.378 115.206 129.424C115.133 129.47 115.071 129.531 115.028 129.603C114.874 129.944 114.838 130.319 114.925 130.68C114.97 131.055 115.055 131.425 115.178 131.785C115.31 132.131 115.463 132.471 115.638 132.801C115.8 133.119 116.049 133.394 116.361 133.598C116.508 133.738 116.673 133.859 116.853 133.961C117.019 134.052 117.181 134.151 117.337 134.257C117.49 134.355 117.66 134.184 117.622 134.045C117.57 133.876 117.543 133.701 117.54 133.525Z" fill="#582B01"/>
<path d="M208.822 128.153C208.797 128.08 208.752 128.015 208.691 127.964C208.631 127.912 208.556 127.876 208.476 127.859C208.395 127.841 208.311 127.843 208.232 127.864C208.152 127.885 208.08 127.924 208.022 127.979C207.695 128.419 207.463 128.911 207.334 129.43C207.177 129.888 207.007 130.343 206.825 130.795C206.598 131.261 206.429 131.749 206.322 132.251C206.285 132.51 206.055 133.209 206.437 133.324C206.793 133.432 207.208 132.794 207.385 132.582C207.711 132.121 207.958 131.617 208.118 131.088C208.292 130.636 208.454 130.179 208.604 129.718C208.809 129.219 208.883 128.682 208.822 128.153Z" fill="#582B01"/>
<path d="M211.847 125.837C211.827 125.819 211.801 125.81 211.774 125.81C211.746 125.81 211.72 125.819 211.7 125.837C210.717 126.724 210.738 128.46 210.478 129.629C210.146 131.134 209.681 132.611 209.088 134.046C208.498 135.453 207.772 136.81 206.918 138.1C206.081 139.37 205.076 140.486 204.669 141.951C204.622 142.12 204.816 142.33 205.014 142.251C206.463 141.56 207.633 140.465 208.354 139.124C209.294 137.715 210.09 136.23 210.734 134.689C211.379 133.177 211.856 131.609 212.156 130.009C212.381 128.784 212.851 126.874 211.85 125.833" fill="#582B01"/>
<path d="M122.961 245.798C122.655 245.129 122.273 244.488 121.941 243.829C121.616 243.189 121.318 242.537 121.012 241.889C120.868 241.552 120.704 241.222 120.521 240.901C120.304 240.614 120.042 240.359 119.745 240.142C119.702 240.105 119.648 240.08 119.59 240.07C119.531 240.061 119.472 240.066 119.417 240.087C119.362 240.108 119.316 240.143 119.282 240.187C119.248 240.231 119.23 240.284 119.228 240.338C119.168 240.633 119.146 240.936 119.164 241.236C119.236 241.608 119.352 241.971 119.509 242.321C119.785 243.045 120.131 243.755 120.466 244.459C120.76 245.138 121.098 245.8 121.477 246.442C121.813 246.969 122.322 247.685 123.051 247.761C123.086 247.761 123.12 247.753 123.15 247.737C123.18 247.721 123.205 247.698 123.222 247.671C123.322 247.359 123.35 247.031 123.305 246.709C123.26 246.387 123.143 246.077 122.961 245.798Z" fill="#582B01"/>
<path d="M124.202 243.603C124.21 243.478 124.195 243.352 124.157 243.231C124.092 243.016 124.011 242.806 123.916 242.601C123.819 242.407 123.705 242.219 123.576 242.041C123.472 241.859 123.33 241.699 123.157 241.568C123.112 241.525 123.063 241.484 123.011 241.447C122.969 241.419 122.922 241.41 122.88 241.386C122.845 241.366 122.815 241.34 122.791 241.31C122.77 241.293 122.745 241.282 122.718 241.277C122.691 241.273 122.663 241.275 122.638 241.285C122.612 241.295 122.591 241.311 122.575 241.331C122.559 241.352 122.55 241.377 122.549 241.402C122.554 241.432 122.557 241.462 122.557 241.493C122.549 241.542 122.509 241.586 122.501 241.638C122.493 241.698 122.489 241.759 122.49 241.82C122.471 242.018 122.494 242.217 122.557 242.406C122.603 242.625 122.672 242.838 122.76 243.046C122.849 243.244 122.95 243.436 123.064 243.624C123.13 243.733 123.213 243.832 123.313 243.916C123.359 243.954 123.402 243.992 123.452 244.026C123.536 244.08 123.635 244.111 123.738 244.114C123.769 244.128 123.803 244.134 123.838 244.134C123.874 244.134 123.908 244.127 123.939 244.113C123.971 244.099 123.998 244.079 124.02 244.054C124.042 244.029 124.057 244 124.065 243.969C124.114 243.921 124.152 243.867 124.18 243.807C124.196 243.739 124.204 243.671 124.202 243.602" fill="#582B01"/>
<path d="M196.488 241.464C196.412 241.366 196.299 241.299 196.171 241.273C196.043 241.247 195.91 241.264 195.795 241.322L195.772 241.334C195.619 241.379 195.487 241.471 195.397 241.593C195.345 241.668 195.294 241.748 195.246 241.825C195.121 242.025 195.014 242.234 194.925 242.449C194.885 242.546 194.847 242.643 194.806 242.738L194.754 242.854V242.858L194.749 242.868C194.66 243.049 194.571 243.227 194.475 243.402C194.23 243.816 194.123 244.285 194.164 244.754C194.175 244.835 194.156 245.026 194.27 245.12C194.42 245.242 194.607 245.16 194.768 245.091C195.479 244.949 195.923 244.235 196.197 243.678C196.378 243.361 196.519 243.028 196.62 242.683C196.666 242.491 196.695 242.294 196.708 242.097C196.724 241.984 196.713 241.868 196.676 241.759C196.637 241.65 196.574 241.549 196.49 241.465" fill="#582B01"/>
<path d="M199.446 239.337C199.435 239.302 199.413 239.273 199.384 239.25C199.355 239.228 199.318 239.213 199.28 239.208C199.242 239.204 199.203 239.209 199.168 239.224C199.133 239.24 199.104 239.263 199.083 239.293C198.554 240.201 198.162 241.169 197.916 242.173C197.567 243.226 197.105 244.245 196.535 245.213C195.417 247.11 193.907 248.731 192.634 250.533C192.532 250.675 192.723 250.804 192.867 250.746C195.137 249.803 196.768 247.821 197.879 245.828C198.441 244.824 198.9 243.775 199.251 242.694C199.712 241.623 199.78 240.446 199.446 239.337Z" fill="#582B01"/>
<path d="M211.946 79.7399C211.828 79.7364 211.711 79.7553 211.601 79.7952C211.492 79.8352 211.393 79.8955 211.311 79.9723C211.228 80.049 211.164 80.1405 211.122 80.2411C211.08 80.3416 211.062 80.449 211.068 80.5564C210.993 80.6127 210.926 80.6755 210.865 80.7441C210.66 80.9096 210.437 81.0571 210.201 81.1845C209.446 81.6264 208.653 82.027 207.881 82.4446C206.249 83.3277 204.609 84.2003 202.963 85.0623C199.821 86.6945 196.639 88.2634 193.377 89.6852C186.806 92.5499 179.759 94.8508 172.491 95.5991C164.756 96.3961 156.97 95.4415 149.296 94.5705C142.654 93.91 136.067 92.8457 129.58 91.3841C122.2 89.6145 115.038 86.9846 108.835 82.8736C108.042 82.3487 107.036 83.591 107.815 84.1451C119.594 92.5215 134.551 94.8459 148.932 96.8397C157.269 97.9958 165.737 99.1219 174.158 98.0633C182.065 97.0688 189.524 94.4698 196.639 91.2386C200.607 89.4358 204.464 87.4363 208.279 85.3841C209.286 84.8421 210.294 84.297 211.302 83.747C212.062 83.4244 212.727 82.9418 213.243 82.3381C213.434 82.105 213.553 81.8287 213.587 81.5387C213.622 81.2486 213.569 80.9561 213.438 80.6907C213.305 80.4255 213.097 80.1976 212.835 80.031C212.573 79.8645 212.267 79.7653 211.949 79.744" fill="#E6E3E5"/>
<path d="M201.913 210.288C201.806 210.232 201.685 210.2 201.561 210.192C201.438 210.185 201.313 210.204 201.199 210.247C201.084 210.289 200.981 210.356 200.898 210.439C200.815 210.524 200.754 210.624 200.719 210.732C200.755 210.545 200.186 211.036 199.964 211.145C199.383 211.395 198.78 211.601 198.162 211.759C196.786 212.197 195.393 212.59 193.983 212.936C191.343 213.586 188.658 214.068 185.963 214.493C180.541 215.283 175.059 215.674 169.569 215.662C157.967 215.714 146.374 215.106 134.856 213.84C131.418 213.479 127.988 213.062 124.564 212.591C121.416 212.158 118.144 211.377 114.961 211.306C114.779 211.31 114.604 211.374 114.468 211.486C114.332 211.597 114.243 211.749 114.219 211.914C114.195 212.08 114.235 212.247 114.333 212.387C114.432 212.528 114.582 212.632 114.757 212.681C117.741 213.663 121.196 213.941 124.323 214.396C127.436 214.848 130.554 215.256 133.679 215.619C140.044 216.36 146.432 216.909 152.841 217.265C164.874 217.931 177.452 218.457 189.367 216.411C192.594 215.866 195.773 215.104 198.876 214.127C200.042 213.756 201.761 213.431 202.501 212.421C202.63 212.249 202.718 212.055 202.759 211.85C202.799 211.646 202.791 211.435 202.736 211.233C202.68 211.031 202.578 210.843 202.436 210.68C202.294 210.517 202.116 210.384 201.913 210.289" fill="#E6E3E5"/>
<path d="M147.956 228.728C147.265 228.151 146.456 227.706 145.576 227.419C144.694 227.132 143.76 227.008 142.826 227.055C141.946 227.076 141.079 227.251 140.272 227.571C139.312 227.861 138.514 228.481 138.049 229.301C137.973 229.441 137.942 229.598 137.96 229.753C137.979 229.908 138.046 230.055 138.153 230.176C138.261 230.297 138.405 230.388 138.567 230.437C138.729 230.485 138.904 230.491 139.069 230.451C139.289 230.394 139.506 230.322 139.714 230.235C139.782 230.205 139.849 230.172 139.917 230.142C139.717 230.23 140.08 230.077 140.177 230.033C140.316 229.971 140.45 229.901 140.589 229.841C140.62 229.831 140.678 229.808 140.716 229.797C140.788 229.772 140.859 229.747 140.93 229.725C141.274 229.617 141.627 229.556 141.98 229.476C142.013 229.468 142.016 229.468 142.031 229.464C142.046 229.46 142.031 229.464 142.039 229.464C142.114 229.454 142.19 229.445 142.265 229.438C142.456 229.42 142.646 229.408 142.838 229.405C143.01 229.405 143.182 229.405 143.355 229.413L143.483 229.421L143.636 229.439C143.991 229.501 144.341 229.58 144.687 229.675L144.736 229.689C144.807 229.717 144.879 229.744 144.949 229.771C145.103 229.837 145.254 229.908 145.4 229.987C145.566 230.075 145.72 230.174 145.876 230.271L145.906 230.291C145.986 230.35 146.065 230.408 146.145 230.471C146.398 230.69 146.736 230.81 147.085 230.802C147.435 230.793 147.766 230.659 148.006 230.427C148.247 230.196 148.377 229.886 148.368 229.568C148.359 229.248 148.212 228.945 147.958 228.726" fill="#6E3517"/>
<path d="M145.24 236.396C145.233 236.139 145.211 235.883 145.174 235.629C145.131 235.236 145.043 234.849 144.912 234.472C144.881 234.367 144.863 234.257 144.823 234.152C144.744 233.905 144.588 233.684 144.374 233.515C144.161 233.347 143.898 233.24 143.619 233.205C143.539 233.198 143.459 233.198 143.38 233.205C142.957 233.115 142.514 233.158 142.121 233.327C141.728 233.495 141.409 233.779 141.214 234.134C140.896 234.746 140.708 235.408 140.661 236.084C140.588 236.591 140.578 237.104 140.631 237.613C140.65 238.306 140.94 238.969 141.448 239.482C141.826 239.822 142.335 240.013 142.865 240.015C143.396 240.017 143.906 239.828 144.286 239.49C144.695 239.1 144.971 238.609 145.08 238.079C145.151 237.698 145.192 237.314 145.207 236.928C145.214 236.877 145.23 236.834 145.233 236.779C145.24 236.652 145.24 236.522 145.233 236.395" fill="#6E3517"/>
<path d="M169.239 228.728C169.929 228.151 170.739 227.706 171.619 227.419C172.5 227.132 173.435 227.008 174.368 227.055C175.248 227.076 176.115 227.251 176.923 227.571C177.883 227.861 178.681 228.481 179.146 229.301C179.222 229.441 179.253 229.598 179.234 229.753C179.216 229.908 179.149 230.055 179.042 230.176C178.934 230.297 178.79 230.388 178.628 230.437C178.465 230.485 178.291 230.491 178.126 230.451C177.905 230.394 177.689 230.322 177.48 230.235C177.413 230.205 177.346 230.172 177.277 230.142C177.478 230.23 177.115 230.077 177.018 230.033C176.879 229.971 176.745 229.901 176.605 229.841C176.575 229.831 176.516 229.808 176.478 229.797C176.407 229.772 176.336 229.747 176.265 229.725C175.92 229.617 175.568 229.556 175.215 229.476C175.198 229.473 175.181 229.468 175.164 229.464C175.159 229.464 175.164 229.464 175.156 229.464C175.08 229.454 175.005 229.445 174.929 229.438C174.739 229.42 174.549 229.408 174.357 229.405C174.184 229.405 174.013 229.405 173.84 229.413L173.711 229.421L173.558 229.439C173.203 229.501 172.853 229.58 172.507 229.675L172.458 229.689C172.387 229.717 172.316 229.744 172.246 229.771C172.092 229.837 171.941 229.908 171.794 229.987C171.629 230.075 171.475 230.174 171.319 230.271C171.308 230.277 171.298 230.284 171.288 230.291C171.207 230.35 171.127 230.408 171.05 230.471C170.797 230.69 170.459 230.81 170.109 230.802C169.76 230.793 169.429 230.659 169.188 230.427C168.948 230.196 168.817 229.886 168.826 229.568C168.836 229.248 168.983 228.945 169.236 228.726" fill="#6E3517"/>
<path d="M171.959 236.78C171.959 236.835 171.978 236.877 171.985 236.928C171.999 237.314 172.041 237.699 172.111 238.08C172.22 238.61 172.497 239.101 172.906 239.491C173.286 239.828 173.797 240.017 174.326 240.015C174.857 240.013 175.366 239.822 175.744 239.483C176.252 238.969 176.542 238.306 176.561 237.614C176.614 237.105 176.604 236.592 176.531 236.085C176.484 235.409 176.295 234.747 175.978 234.135C175.844 233.909 175.662 233.71 175.441 233.551C175.221 233.391 174.968 233.275 174.696 233.207C174.405 233.151 174.103 233.151 173.812 233.207C173.733 233.203 173.653 233.203 173.573 233.207C173.293 233.242 173.031 233.35 172.818 233.519C172.603 233.688 172.448 233.909 172.369 234.156C172.333 234.261 172.314 234.369 172.28 234.476C172.149 234.853 172.061 235.24 172.018 235.633C171.981 235.887 171.959 236.143 171.952 236.4C171.952 236.527 171.947 236.656 171.952 236.785" fill="#6E3517"/>
<path d="M161.606 244.514C161.431 244.36 161.199 244.273 160.956 244.273C160.714 244.273 160.48 244.36 160.307 244.514C160.146 244.678 159.973 244.832 159.792 244.976L159.777 244.99C159.731 245.02 159.688 245.05 159.637 245.079C159.543 245.136 159.444 245.189 159.345 245.238C159.294 245.261 159.244 245.285 159.194 245.307C159.174 245.316 159.17 245.32 159.17 245.32L159.128 245.332C159.021 245.367 158.913 245.4 158.803 245.427C158.7 245.452 158.596 245.472 158.491 245.488C158.476 245.488 158.461 245.492 158.443 245.493C158.372 245.497 158.301 245.501 158.23 245.502C157.84 245.53 157.449 245.469 157.092 245.325C156.682 245.103 156.292 244.852 155.926 244.574C155.801 244.508 155.656 244.482 155.513 244.498C155.368 244.515 155.236 244.575 155.133 244.667C155.035 244.763 154.972 244.885 154.953 245.015C154.935 245.145 154.962 245.277 155.03 245.393C155.351 245.895 155.836 246.293 156.417 246.53C156.978 246.806 157.595 246.97 158.23 247.014C158.865 247.041 159.498 246.938 160.084 246.71C160.669 246.482 161.19 246.136 161.608 245.698C161.776 245.538 161.869 245.326 161.869 245.105C161.869 244.883 161.776 244.671 161.608 244.511" fill="#FBA383"/>
<path d="M162.888 252.397C162.706 252.303 162.497 252.266 162.29 252.29C162.083 252.315 161.891 252.4 161.742 252.533C161.31 252.99 160.829 253.406 160.306 253.776C159.79 254.103 159.199 254.317 158.578 254.401C157.894 254.479 157.197 254.407 156.55 254.188C155.858 253.967 155.183 253.3 154.416 253.43C154.284 253.466 154.167 253.539 154.083 253.64C153.999 253.741 153.953 253.863 153.951 253.989C153.894 254.461 154.418 254.903 154.796 255.149C155.193 255.401 155.622 255.608 156.073 255.766C156.927 256.079 157.851 256.202 158.767 256.124C159.722 256.069 160.646 255.786 161.446 255.304C162.245 254.821 162.891 254.155 163.321 253.373C163.376 253.189 163.363 252.994 163.284 252.818C163.205 252.641 163.066 252.494 162.886 252.398" fill="#FBA383"/>
<path d="M188.238 241.887C187.921 239.095 183.579 239.124 181.487 240.001C178.792 241.133 179.258 243.601 181.842 244.418C184.227 245.172 188.617 245.205 188.244 241.887" fill="#FB8A83"/>
<path d="M138.742 241.887C138.425 239.095 134.083 239.124 131.991 240.001C129.295 241.133 129.761 243.601 132.346 244.418C134.731 245.172 139.121 245.205 138.748 241.887" fill="#FB8A83"/>
<path d="M142.946 117.636C142.45 116.983 141.711 116.517 140.867 116.325C140.383 116.242 139.884 116.273 139.417 116.415C138.952 116.557 138.532 116.806 138.199 117.137C137.221 118.094 137.029 119.587 136.855 120.83C136.582 122.773 136.492 125.442 138.84 126.378C141.335 127.374 143.003 125.647 143.696 123.697C143.929 123.002 144.057 122.279 144.075 121.552C144.184 120.169 143.788 118.792 142.948 117.637" fill="#582B01"/>
<path d="M147.061 110.316C146.852 109.862 146.555 109.445 146.186 109.085C146.002 108.907 145.806 108.741 145.597 108.587C145.102 108.208 144.561 107.883 143.984 107.619C142.801 107.089 141.494 106.831 140.177 106.868C138.877 106.914 137.611 107.258 136.494 107.868C135.42 108.468 134.123 109.638 134.206 110.884C134.193 111.075 134.23 111.265 134.314 111.44C134.398 111.615 134.526 111.769 134.689 111.89C134.851 112.01 135.043 112.093 135.247 112.131C135.452 112.17 135.664 112.164 135.865 112.112C136.739 111.987 137.531 111.285 138.302 110.932C138.385 110.893 138.475 110.851 138.568 110.812L138.601 110.803C138.814 110.733 139.025 110.665 139.242 110.611C139.337 110.588 139.439 110.574 139.534 110.548L139.545 110.544C139.763 110.526 139.983 110.509 140.203 110.511C140.292 110.511 140.381 110.518 140.47 110.518C140.661 110.551 140.851 110.58 141.039 110.626C141.153 110.655 141.264 110.694 141.378 110.721C141.551 110.791 141.726 110.861 141.893 110.943C142.06 111.025 142.232 111.131 142.4 111.228C142.463 111.278 142.529 111.325 142.593 111.376C142.758 111.509 142.908 111.653 143.059 111.799L143.094 111.83C143.227 111.999 143.378 112.155 143.545 112.296C143.892 112.585 144.332 112.766 144.799 112.809C145.266 112.853 145.737 112.758 146.141 112.54C146.54 112.312 146.847 111.971 147.013 111.569C147.18 111.167 147.197 110.725 147.063 110.314" fill="#582B01"/>
<path d="M180.477 116.651C180.979 116.001 181.722 115.542 182.569 115.356C183.053 115.277 183.552 115.311 184.017 115.456C184.483 115.602 184.9 115.854 185.23 116.187C186.197 117.152 186.376 118.647 186.538 119.891C186.792 121.837 186.855 124.505 184.499 125.423C181.993 126.398 180.343 124.657 179.669 122.704C179.443 122.006 179.324 121.283 179.314 120.556C179.218 119.172 179.628 117.799 180.479 116.651" fill="#582B01"/>
<path d="M175.726 109.668C175.911 109.205 176.184 108.775 176.533 108.399C176.708 108.213 176.895 108.038 177.095 107.875C177.569 107.475 178.092 107.125 178.653 106.835C179.806 106.252 181.098 105.936 182.416 105.913C183.717 105.9 185.001 106.186 186.15 106.745C187.254 107.295 188.616 108.406 188.6 109.654C188.623 109.843 188.596 110.036 188.521 110.214C188.447 110.392 188.326 110.552 188.17 110.678C188.015 110.806 187.828 110.897 187.626 110.945C187.423 110.993 187.212 110.996 187.008 110.954C186.128 110.868 185.299 110.202 184.511 109.885C184.422 109.85 184.333 109.81 184.244 109.777C184.231 109.777 184.228 109.777 184.211 109.769C183.995 109.709 183.781 109.65 183.56 109.607C183.462 109.588 183.362 109.578 183.265 109.556H183.254C183.034 109.547 182.815 109.541 182.594 109.551C182.505 109.556 182.416 109.567 182.327 109.572C182.138 109.612 181.951 109.653 181.766 109.706C181.654 109.739 181.544 109.782 181.432 109.815C181.263 109.897 181.093 109.971 180.93 110.059C180.767 110.148 180.602 110.261 180.439 110.366C180.38 110.418 180.316 110.468 180.254 110.522C180.097 110.663 179.955 110.813 179.81 110.965L179.779 110.998C179.656 111.174 179.513 111.337 179.353 111.486C179.022 111.791 178.593 111.991 178.129 112.057C177.665 112.122 177.19 112.05 176.774 111.85C176.363 111.64 176.039 111.314 175.85 110.92C175.663 110.526 175.621 110.086 175.733 109.668" fill="#582B01"/>
<path d="M164.517 132.95C164.559 132.887 164.579 132.837 164.517 132.95V132.95Z" fill="#FBA383"/>
<path d="M166.61 132.13C166.285 131.973 165.907 131.937 165.554 132.031C165.202 132.123 164.903 132.338 164.719 132.629C164.647 132.745 164.564 132.861 164.499 132.981C164.503 132.971 164.509 132.962 164.515 132.952C164.503 132.97 164.49 132.987 164.475 133.003C164.426 133.053 164.377 133.105 164.325 133.153C164.272 133.202 164.214 133.243 164.167 133.291C164.024 133.372 163.889 133.467 163.74 133.543C163.689 133.568 163.637 133.592 163.585 133.616C163.569 133.622 163.553 133.629 163.536 133.634C163.371 133.687 163.208 133.738 163.038 133.778C162.964 133.795 162.89 133.807 162.818 133.824C162.644 133.833 162.474 133.856 162.3 133.858C161.647 133.846 161.004 133.721 160.402 133.491C159.616 133.194 158.928 132.732 158.151 132.429C157.93 132.327 157.677 132.3 157.436 132.353C157.196 132.406 156.983 132.535 156.836 132.718C156.69 132.9 156.619 133.124 156.637 133.35C156.655 133.576 156.759 133.789 156.932 133.95C157.655 134.604 158.501 135.133 159.429 135.511C160.396 135.96 161.457 136.215 162.541 136.255C164.281 136.29 166.439 135.388 167.159 133.857C167.329 133.56 167.367 133.215 167.266 132.893C167.165 132.572 166.931 132.298 166.613 132.13" fill="#FBA383"/>
<path d="M167.903 143.335C167.601 143.101 167.212 142.984 166.817 143.008C166.422 143.033 166.053 143.197 165.788 143.466C165.616 143.669 165.397 143.835 165.147 143.953C164.74 144.118 164.318 144.252 163.887 144.354C163.075 144.546 162.236 144.627 161.398 144.593C160.468 144.565 159.549 144.405 158.674 144.118C157.766 143.704 156.835 143.337 155.882 143.017C155.282 142.895 154.585 143.43 154.839 144.019C155.54 145.638 157.855 146.503 159.583 146.898C161.496 147.34 163.507 147.293 165.392 146.762C166.471 146.546 167.433 145.99 168.108 145.191C168.306 144.905 168.394 144.567 168.356 144.23C168.319 143.894 168.158 143.579 167.9 143.336" fill="#FBA383"/>
<path d="M132.403 278.366C131.639 278.804 130.997 279.399 130.529 280.103C129.917 280.83 129.332 281.574 128.773 282.334C126.616 285.284 124.874 288.47 123.588 291.818C123.257 292.696 122.966 293.587 122.704 294.484C122.588 294.882 122.479 295.282 122.375 295.685C122.34 296.014 122.172 296.32 121.902 296.541C121.782 296.656 121.697 296.797 121.653 296.951C121.611 297.106 121.611 297.266 121.656 297.42C121.701 297.574 121.788 297.715 121.909 297.829C122.03 297.943 122.181 298.027 122.347 298.072C124.328 298.804 124.684 295.611 125.002 294.579C125.582 292.674 126.306 290.807 127.169 288.994C128.009 287.244 128.981 285.55 130.077 283.923C130.611 283.133 131.172 282.36 131.761 281.604C132.492 280.88 133.078 280.045 133.494 279.136C133.529 279.007 133.522 278.872 133.473 278.746C133.425 278.62 133.338 278.51 133.222 278.429C133.106 278.348 132.967 278.299 132.822 278.288C132.677 278.278 132.531 278.306 132.403 278.37" fill="#6A8463"/>
<path d="M196.869 298.337C196.028 295.829 194.983 293.383 193.74 291.019C192.522 288.65 191.15 286.349 189.685 284.1C188.929 282.938 188.165 281.778 187.317 280.67C186.686 279.847 185.984 278.697 184.815 278.525C184.752 278.51 184.686 278.518 184.63 278.547C184.573 278.576 184.531 278.624 184.512 278.681C184.246 279.574 184.825 280.432 185.275 281.209C185.927 282.332 186.658 283.416 187.342 284.521C188.757 286.801 190.082 289.131 191.255 291.522C192.406 293.875 193.391 296.294 194.202 298.763C194.6 299.965 194.946 301.182 195.233 302.41C195.396 303.668 195.724 304.904 196.211 306.091C196.324 306.26 196.49 306.395 196.686 306.481C196.882 306.566 197.101 306.598 197.317 306.572C197.532 306.546 197.735 306.463 197.901 306.335C198.066 306.207 198.188 306.037 198.25 305.847C198.757 303.532 197.589 300.55 196.869 298.336" fill="#6A8463"/>
<path d="M160.197 270.552C160.115 270.336 159.736 270.235 159.61 270.482C158.519 272.613 158.786 275.438 158.632 277.75C158.445 280.488 158.273 283.228 158.117 285.968C157.804 291.443 157.658 296.928 157.529 302.409C157.4 307.89 157.319 313.377 157.291 318.858C157.276 321.599 157.273 324.341 157.283 327.083C157.293 329.644 156.959 332.456 157.714 334.945C157.762 335.09 157.86 335.215 157.993 335.306C158.126 335.395 158.287 335.444 158.452 335.444C158.617 335.444 158.778 335.395 158.911 335.306C159.044 335.215 159.142 335.09 159.19 334.945C159.882 332.441 159.499 329.649 159.486 327.083C159.471 324.341 159.468 321.599 159.478 318.858C159.498 313.466 159.566 308.074 159.682 302.684C159.798 297.294 160.003 291.905 160.134 286.516C160.201 283.776 160.277 281.037 160.364 278.298C160.404 277.02 160.452 275.742 160.492 274.463C160.653 273.154 160.555 271.829 160.201 270.552" fill="#ACB788"/>
<path d="M157.757 272.234C157.746 272.009 157.669 271.79 157.535 271.602C157.436 271.464 157.313 271.337 157.2 271.204L157.152 271.147C156.793 270.837 156.317 270.664 155.822 270.664C155.327 270.664 154.852 270.837 154.493 271.147L154.197 271.495C154.029 271.758 153.94 272.058 153.94 272.363C153.964 272.515 153.987 272.667 154.008 272.82C154.095 273.107 154.262 273.368 154.493 273.578L154.553 273.622C154.698 273.725 154.838 273.837 154.988 273.929L155.432 274.101C155.672 274.171 155.929 274.181 156.175 274.131C156.339 274.131 156.502 274.09 156.644 274.015C156.875 273.947 157.081 273.826 157.244 273.664L157.534 273.319C157.597 273.184 157.661 273.049 157.723 272.913C157.8 272.694 157.812 272.46 157.756 272.235" fill="#ACB788"/>
<path d="M156.089 289.257C156.078 289.032 156.001 288.814 155.867 288.625C155.768 288.488 155.645 288.36 155.532 288.228L155.484 288.171C155.125 287.861 154.649 287.688 154.154 287.688C153.66 287.688 153.184 287.861 152.825 288.171L152.529 288.519C152.361 288.782 152.272 289.082 152.272 289.386C152.296 289.538 152.319 289.69 152.34 289.844C152.427 290.131 152.593 290.391 152.824 290.602L152.884 290.646C153.029 290.748 153.169 290.86 153.319 290.952L153.764 291.124C154.004 291.194 154.26 291.205 154.506 291.154C154.67 291.154 154.833 291.114 154.975 291.038C155.206 290.971 155.412 290.85 155.576 290.687C155.672 290.572 155.769 290.456 155.865 290.343C155.929 290.207 155.992 290.072 156.054 289.936C156.131 289.717 156.143 289.483 156.087 289.258" fill="#ACB788"/>
<path d="M155.254 308.059C155.243 307.834 155.167 307.616 155.032 307.427C154.933 307.29 154.81 307.162 154.697 307.03L154.649 306.973C154.29 306.663 153.814 306.49 153.319 306.49C152.825 306.49 152.349 306.663 151.99 306.973L151.695 307.321C151.527 307.584 151.438 307.884 151.438 308.188C151.461 308.34 151.482 308.492 151.505 308.644C151.591 308.931 151.759 309.193 151.989 309.403L152.049 309.447C152.194 309.549 152.334 309.662 152.484 309.753L152.929 309.925C153.169 309.995 153.426 310.006 153.672 309.955C153.837 309.955 153.999 309.915 154.141 309.839C154.372 309.772 154.579 309.65 154.742 309.487L155.031 309.143C155.095 309.008 155.157 308.872 155.22 308.737C155.297 308.517 155.309 308.283 155.253 308.058" fill="#ACB788"/>
<path d="M154.697 328.039C154.686 327.814 154.61 327.595 154.476 327.407C154.376 327.27 154.253 327.142 154.141 327.01L154.093 326.954C153.928 326.79 153.72 326.668 153.488 326.599C153.261 326.501 153.014 326.451 152.763 326.451C152.512 326.451 152.265 326.501 152.038 326.599C151.806 326.668 151.598 326.79 151.433 326.954L151.138 327.302C150.969 327.565 150.881 327.864 150.881 328.169C150.904 328.321 150.927 328.473 150.949 328.626C151.035 328.913 151.201 329.175 151.432 329.384L151.493 329.428C151.638 329.531 151.777 329.643 151.928 329.735L152.372 329.907C152.612 329.978 152.868 329.988 153.115 329.937C153.28 329.938 153.442 329.897 153.584 329.821C153.814 329.753 154.021 329.632 154.184 329.47L154.474 329.125C154.537 328.99 154.599 328.855 154.662 328.719C154.74 328.5 154.751 328.266 154.695 328.041" fill="#ACB788"/>
<path d="M242.513 300.035C241.498 299.57 240.329 299.467 239.236 299.745C237.651 299.948 236.074 300.225 234.505 300.508C231.522 301.05 228.566 301.695 225.635 302.444C208.37 306.887 192.381 314.734 178.794 325.433C176.25 327.437 173.801 329.539 171.448 331.74C169.172 333.868 166.501 336.095 165.075 338.808C164.857 339.223 165.351 339.856 165.851 339.517C168.137 337.973 169.884 335.835 171.842 333.965C173.89 332.01 176.016 330.126 178.219 328.316C182.624 324.701 187.318 321.392 192.262 318.416C202.092 312.481 212.819 307.892 224.101 304.792C227.242 303.932 230.422 303.193 233.638 302.573C235.203 302.272 236.776 302.002 238.356 301.76C239.854 301.53 241.468 301.516 242.574 300.475C242.606 300.445 242.63 300.408 242.645 300.368C242.66 300.329 242.664 300.286 242.659 300.245C242.653 300.203 242.637 300.163 242.612 300.128C242.587 300.092 242.553 300.063 242.514 300.041" fill="#E6F0E9"/>
<path d="M240.525 303.773C237.801 303.707 235.086 304.063 232.494 304.829C229.877 305.472 227.296 306.225 224.751 307.085C219.649 308.814 214.697 310.894 209.941 313.308C200.247 318.294 191.167 324.215 182.853 330.969C180.455 332.889 178.098 334.85 175.782 336.853C173.755 338.602 171.119 340.369 170.069 342.784C170.058 342.823 170.058 342.862 170.069 342.901C170.081 342.939 170.102 342.974 170.133 343.001C170.164 343.03 170.202 343.049 170.244 343.06C170.285 343.07 170.329 343.07 170.371 343.06C172.702 342.272 174.423 340.379 176.218 338.867C178.251 337.152 180.314 335.466 182.406 333.806C186.585 330.494 190.866 327.276 195.314 324.268C204.019 318.221 213.566 313.26 223.704 309.517C226.459 308.538 229.26 307.681 232.108 306.946C235.042 306.194 237.97 305.704 240.766 304.59C241.243 304.401 240.948 303.795 240.524 303.769" fill="#E6F0E9"/>
<path d="M242.243 308.178C240.175 307.373 237.4 308.895 235.471 309.578C232.977 310.461 230.503 311.392 228.051 312.371C223.09 314.349 218.229 316.521 213.469 318.887C203.946 323.622 194.891 329.103 186.406 335.271C183.987 337.029 181.62 338.846 179.306 340.724C177.149 342.466 174.69 344.317 173.269 346.64C173.232 346.703 173.217 346.776 173.228 346.847C173.239 346.917 173.275 346.983 173.331 347.034C173.387 347.085 173.459 347.118 173.536 347.128C173.613 347.138 173.693 347.125 173.762 347.09C175.999 346.054 177.921 344.337 179.795 342.832C181.798 341.225 183.837 339.658 185.913 338.13C190.125 335.03 194.472 332.093 198.953 329.32C207.791 323.87 217.117 319.112 226.831 315.097C229.562 313.969 232.322 312.904 235.112 311.901C236.551 311.384 238.006 310.901 239.451 310.395C240.612 309.989 241.762 309.68 242.377 308.626C242.424 308.551 242.437 308.462 242.413 308.378C242.389 308.294 242.33 308.222 242.248 308.178" fill="#E6F0E9"/>
<path d="M72.4366 300.035C73.452 299.57 74.6201 299.467 75.7139 299.745C77.2983 299.948 78.8756 300.225 80.4441 300.508C83.4268 301.05 86.3838 301.695 89.315 302.444C106.579 306.887 122.568 314.734 136.155 325.433C138.7 327.437 141.149 329.539 143.5 331.74C145.777 333.868 148.448 336.095 149.873 338.808C150.091 339.223 149.599 339.856 149.097 339.517C146.811 337.973 145.064 335.835 143.106 333.965C141.059 332.01 138.932 330.126 136.728 328.316C132.324 324.701 127.63 321.392 122.687 318.416C112.856 312.481 102.131 307.889 90.8488 304.788C87.7071 303.929 84.5282 303.189 81.3119 302.569C79.7458 302.269 78.173 301.998 76.5933 301.757C75.0951 301.527 73.4813 301.513 72.3752 300.472C72.3432 300.442 72.3189 300.405 72.3044 300.365C72.2898 300.325 72.2852 300.283 72.291 300.242C72.2968 300.199 72.3129 300.16 72.3379 300.125C72.363 300.089 72.3964 300.06 72.4357 300.038" fill="#E6F0E9"/>
<path d="M74.4256 303.773C77.1486 303.707 79.8641 304.063 82.4562 304.829C85.0726 305.472 87.6537 306.225 90.1997 307.085C95.3015 308.814 100.252 310.894 105.009 313.308C114.702 318.294 123.783 324.215 132.096 330.969C134.495 332.889 136.852 334.85 139.168 336.853C141.195 338.602 143.831 340.369 144.88 342.784C144.891 342.823 144.891 342.862 144.88 342.901C144.869 342.939 144.847 342.974 144.816 343.001C144.786 343.029 144.748 343.049 144.706 343.06C144.664 343.07 144.621 343.07 144.579 343.06C142.248 342.272 140.527 340.379 138.733 338.867C136.698 337.152 134.635 335.466 132.544 333.806C128.365 330.494 124.084 327.276 119.637 324.268C110.932 318.221 101.384 313.26 91.2453 309.517C88.4908 308.538 85.6894 307.681 82.8412 306.946C79.9071 306.194 76.9801 305.704 74.1838 304.59C73.7063 304.401 74.0015 303.795 74.4274 303.769" fill="#E6F0E9"/>
<path d="M72.7052 308.178C74.7724 307.373 77.5483 308.895 79.4786 309.578C81.9723 310.461 84.4456 311.392 86.8983 312.371C91.8597 314.349 96.7206 316.521 101.48 318.887C111.004 323.621 120.059 329.103 128.543 335.271C130.963 337.029 133.33 338.846 135.643 340.724C137.801 342.466 140.259 344.317 141.68 346.64C141.719 346.703 141.733 346.776 141.721 346.847C141.711 346.917 141.674 346.983 141.619 347.034C141.563 347.085 141.491 347.118 141.414 347.128C141.336 347.138 141.256 347.125 141.188 347.09C138.951 346.054 137.028 344.337 135.155 342.832C133.152 341.225 131.113 339.658 129.037 338.13C124.824 335.03 120.477 332.093 115.997 329.32C107.159 323.87 97.8329 319.112 88.1182 315.097C85.3881 313.969 82.6279 312.904 79.8378 311.901C78.3983 311.384 76.9445 310.901 75.4988 310.395C74.3376 309.989 73.1871 309.68 72.5727 308.626C72.5252 308.551 72.5121 308.462 72.536 308.378C72.56 308.294 72.6191 308.222 72.7007 308.178" fill="#E6F0E9"/>
<path d="M156.843 363.228C156.587 363.147 156.315 363.123 156.048 363.157C155.787 363.23 155.537 363.33 155.3 363.454L153.966 364.059L151.221 365.307C150.332 365.714 149.451 366.125 148.569 366.536C148.104 366.706 147.681 366.96 147.325 367.282C147.118 367.512 146.952 367.967 147.259 368.181C148.044 368.726 149.118 368.059 149.881 367.744C150.73 367.393 151.58 367.044 152.426 366.688L154.961 365.614L156.146 365.115C156.375 365.03 156.597 364.927 156.809 364.809C157.027 364.661 157.192 364.457 157.284 364.223C157.34 364.133 157.372 364.033 157.38 363.929C157.387 363.826 157.368 363.723 157.325 363.628C157.283 363.532 157.216 363.447 157.133 363.378C157.048 363.309 156.948 363.258 156.839 363.23" fill="#F59227"/>
<path d="M165.11 368.869C163.821 369.508 162.557 370.183 161.286 370.856L159.419 371.846C159.07 372.024 158.738 372.229 158.428 372.459C158.31 372.549 158.199 372.646 158.097 372.752C157.939 372.921 157.947 373.119 157.844 373.27C157.804 373.335 157.783 373.408 157.783 373.482C157.783 373.556 157.806 373.629 157.846 373.694C157.886 373.758 157.944 373.812 158.014 373.85C158.085 373.887 158.165 373.907 158.246 373.908C158.311 373.872 158.38 373.894 158.451 373.976C158.591 374.011 158.737 374.011 158.877 373.976C159.03 373.952 159.181 373.916 159.328 373.87C159.704 373.742 160.068 373.588 160.418 373.408L162.316 372.469C163.605 371.832 164.895 371.197 166.162 370.525C166.396 370.394 166.564 370.184 166.63 369.941C166.697 369.698 166.657 369.441 166.518 369.224C166.38 369.007 166.154 368.85 165.89 368.783C165.626 368.717 165.344 368.747 165.103 368.869" fill="#F59227"/>
<path d="M161.294 375.466C161.212 375.467 161.132 375.492 161.067 375.538C161.001 375.584 160.953 375.647 160.93 375.72C160.68 376.345 160.504 377.171 160.246 377.866C159.844 378.948 159.268 379.991 158.765 381.035L155.612 387.645C154.766 389.421 154.019 391.528 152.144 392.614C151.707 392.867 151.207 393.015 150.691 393.045C150.174 393.075 149.658 392.984 149.189 392.784C148.265 392.415 147.22 392.393 146.279 392.724C146.145 392.799 146.037 392.909 145.969 393.039C145.902 393.169 145.876 393.314 145.897 393.457C145.918 393.6 145.983 393.734 146.085 393.843C146.187 393.953 146.322 394.033 146.473 394.075C147.69 394.258 148.773 394.834 149.981 395.025C151.19 395.2 152.426 394.991 153.487 394.434C155.799 393.201 156.771 390.71 157.787 388.597L161.517 380.842C162.139 379.548 164.296 375.667 161.299 375.461" fill="#A25454"/>
<path d="M105.351 195.867C105.333 195.811 105.299 195.76 105.254 195.719C105.207 195.678 105.15 195.649 105.089 195.635C105.027 195.62 104.962 195.62 104.9 195.635C104.838 195.649 104.781 195.678 104.735 195.718C103.757 196.638 103.049 197.769 102.676 199.005C102.076 200.532 101.513 202.062 100.964 203.604C99.941 206.487 98.8998 209.363 97.9164 212.257C95.8377 218.045 94.215 223.96 93.0591 229.958C90.9252 242.199 92.635 254.59 94.9156 266.706C95.5522 270.087 96.2547 273.461 96.9962 276.827C97.3865 278.599 97.7857 280.37 98.1947 282.137C98.5851 283.823 98.85 285.59 99.8752 287.064C100.378 287.787 101.967 287.822 102.121 286.796C102.547 283.961 101.333 280.904 100.707 278.135C100.026 275.128 99.3782 272.114 98.7629 269.094C97.5386 263.01 96.4894 256.886 95.7825 250.732C94.9939 244.649 94.9636 238.504 95.6936 232.415C96.6068 226.506 98.0525 220.676 100.016 214.985C101.062 211.747 102.15 208.519 103.217 205.287C103.755 203.652 104.313 202.025 104.793 200.374C105.223 198.898 105.749 197.386 105.35 195.864" fill="#3B8C67"/>
<path d="M230.457 236.134C229.378 229.252 227.812 222.442 225.768 215.745C224.654 211.911 223.502 208.085 222.358 204.257C221.779 202.316 221.2 200.375 220.619 198.434C220.151 196.471 219.515 194.544 218.713 192.673C218.301 191.847 216.989 192.167 216.729 192.91C216.544 193.492 216.418 194.088 216.352 194.69C216.301 195.053 216.718 195.157 217.02 195.06C217.253 196.049 217.553 197.028 217.814 198.003L219.325 203.601C220.23 206.952 221.134 210.303 222.04 213.656C223.846 220.357 225.617 227.092 226.684 233.931C227.752 240.721 227.881 247.608 227.067 254.428C226.237 261.355 224.652 268.211 223.283 275.064C222.496 279.001 221.682 282.935 220.922 286.875C220.211 290.562 218.907 294.593 219.486 298.338C219.626 299.237 221.111 299.299 221.543 298.582C223.388 295.529 223.69 291.702 224.4 288.314C225.131 284.831 225.801 281.336 226.5 277.847C227.896 270.86 229.457 263.879 230.472 256.835C231.462 249.964 231.459 243.005 230.463 236.136" fill="#3B8C67"/>
<path d="M165.486 171.278C165.476 171.003 165.457 170.73 165.431 170.456C165.405 169.845 165.301 169.24 165.121 168.651C165.072 168.522 164.989 168.407 164.879 168.316C164.768 168.225 164.634 168.161 164.489 168.131C164.392 168.066 164.274 168.034 164.155 168.04C164.035 168.048 163.922 168.093 163.836 168.17C163.702 168.239 163.592 168.34 163.516 168.462C163.439 168.584 163.399 168.722 163.401 168.863C163.412 169.04 163.433 169.217 163.463 169.392C163.476 169.474 163.49 169.547 163.502 169.625V169.647V169.675C163.533 169.949 163.568 170.22 163.591 170.494C163.611 170.755 163.623 171.016 163.628 171.277C163.58 171.656 163.634 172.04 163.783 172.396C163.863 172.518 163.977 172.619 164.112 172.688C164.247 172.758 164.4 172.795 164.556 172.795C164.711 172.795 164.864 172.758 165 172.688C165.136 172.619 165.249 172.518 165.329 172.396C165.493 172.043 165.547 171.656 165.485 171.277" fill="#BBB3B8"/>
<path d="M76.9758 292.72C76.9758 292.81 76.9758 292.61 76.9758 292.589C76.9739 292.487 76.9397 292.388 76.8776 292.305C76.8154 292.22 76.7278 292.154 76.6254 292.115C76.5214 292.076 76.4073 292.065 76.2969 292.084C76.1866 292.103 76.0845 292.151 76.0031 292.222L75.8617 292.33C76.0111 292.219 75.7621 292.388 75.7141 292.432C75.6039 292.553 75.5094 292.686 75.4322 292.827C75.3053 293.036 75.1907 293.251 75.089 293.471C74.8294 293.937 74.6137 294.422 74.4444 294.921C74.4074 295.089 74.4345 295.263 74.5209 295.415C74.561 295.55 74.6581 295.667 74.7913 295.738C74.9244 295.809 75.0828 295.829 75.2322 295.794C75.3562 295.786 75.4766 295.752 75.5832 295.693C75.6899 295.635 75.7798 295.555 75.8457 295.458C76.1125 295.046 76.3403 294.614 76.5267 294.166C76.6588 293.91 76.7752 293.647 76.8753 293.379C76.9239 293.257 76.9608 293.132 76.9855 293.004C76.9918 292.908 76.9892 292.812 76.9775 292.716" fill="#FBA383"/>
<path d="M84.8978 293.218C84.8214 293.055 84.6871 292.873 84.4871 292.93C84.3669 292.96 84.2603 293.025 84.1821 293.113C84.0592 293.185 83.9548 293.281 83.8762 293.394C83.8493 293.427 83.8294 293.463 83.8176 293.502L83.8122 293.512C83.7902 293.565 83.7653 293.617 83.7375 293.667C83.6148 293.903 83.4992 294.134 83.3934 294.378C83.3765 294.421 83.3045 294.589 83.3934 294.395C83.3448 294.491 83.3035 294.59 83.2698 294.691C83.227 294.829 83.204 294.972 83.2014 295.116C83.2014 295.207 83.2014 295.299 83.2014 295.39C83.1911 295.464 83.1941 295.54 83.2103 295.613C83.2155 295.621 83.2197 295.63 83.2227 295.639C83.2227 295.657 83.2227 295.675 83.2227 295.694C83.2272 295.845 83.4005 296.009 83.5828 295.943C83.6024 295.936 83.7518 295.879 83.6379 295.911C83.7166 295.911 83.794 295.893 83.862 295.856C83.8887 295.843 83.9109 295.83 83.9376 295.816C84.0327 295.763 84.127 295.707 84.2168 295.647C84.5289 295.434 84.7603 295.137 84.8783 294.797C84.9282 294.696 84.9678 294.59 84.9965 294.482C85.0307 294.321 85.0556 294.158 85.0712 293.995C85.126 293.726 85.0666 293.448 84.905 293.218" fill="#FBA383"/>
<path d="M93.9011 294.169C93.7891 293.999 93.6584 293.839 93.5099 293.693C93.4601 293.636 93.4077 293.582 93.3508 293.531C93.2307 293.441 93.0911 293.378 92.9409 293.343C92.8102 293.31 92.6706 293.326 92.5523 293.387C92.435 293.448 92.3478 293.549 92.3114 293.668C92.2838 293.758 92.2651 293.85 92.2554 293.943C92.2651 294.052 92.2847 294.161 92.314 294.268L92.3274 294.342V294.364C92.3354 294.485 92.3496 294.607 92.3709 294.727C92.3861 294.803 92.4065 294.878 92.4216 294.953C92.4287 294.989 92.435 295.026 92.4412 295.062C92.4545 295.179 92.4696 295.297 92.4919 295.413C92.4963 295.438 92.5514 295.667 92.5168 295.532C92.4821 295.397 92.5274 295.625 92.5292 295.654C92.5381 295.782 92.555 295.911 92.5808 296.037C92.6137 296.182 92.6466 296.325 92.6697 296.469C92.6892 296.577 92.7684 296.672 92.7853 296.773C92.7506 296.707 92.7444 296.708 92.763 296.773C92.7746 296.806 92.7862 296.838 92.7986 296.871C92.8448 296.996 92.8795 297.125 92.9026 297.256C92.9169 297.301 92.9435 297.341 92.98 297.374C93.0164 297.407 93.0618 297.431 93.1107 297.442C93.1605 297.454 93.2121 297.454 93.2618 297.442C93.3107 297.431 93.3561 297.407 93.3926 297.375C93.5028 297.276 93.6148 297.176 93.7171 297.071C93.7704 297.02 93.8193 296.966 93.862 296.908C93.87 296.896 93.8762 296.884 93.8807 296.87C93.9189 296.823 93.9696 296.781 93.9989 296.733C94.0381 296.665 94.071 296.595 94.0976 296.524C94.2541 296.166 94.3155 295.781 94.2755 295.397C94.2399 294.969 94.111 294.552 93.8967 294.17" fill="#FBA383"/>
<path d="M127.582 308.547C127.536 308.231 127.493 307.915 127.412 307.605C127.374 307.482 127.328 307.362 127.273 307.245C127.235 307.14 127.187 307.039 127.128 306.942C127.067 306.861 127.002 306.784 126.931 306.71C126.865 306.651 126.786 306.606 126.698 306.579C126.61 306.552 126.517 306.543 126.425 306.554C126.334 306.565 126.247 306.595 126.169 306.641C126.092 306.688 126.028 306.749 125.981 306.823C125.896 306.971 125.839 307.13 125.808 307.295C125.775 307.465 125.754 307.637 125.745 307.81C125.745 308.066 125.769 308.32 125.797 308.573C125.872 309.246 125.84 310.657 126.953 310.523C127.996 310.396 127.673 309.197 127.575 308.549" fill="#FBA383"/>
<path d="M120.596 303.494C120.633 303.538 120.67 303.583 120.707 303.627C120.684 303.584 120.663 303.541 120.64 303.5C120.586 303.414 120.508 303.343 120.414 303.293C120.321 303.244 120.215 303.219 120.106 303.219C120.003 303.221 119.902 303.246 119.812 303.292C119.721 303.339 119.645 303.404 119.589 303.483L119.6 303.472L119.587 303.486L119.572 303.5L119.533 303.55C119.457 303.626 119.4 303.715 119.362 303.812C119.345 303.863 119.33 303.913 119.313 303.964C119.281 304.058 119.241 304.152 119.199 304.245C119.226 304.185 119.254 304.125 119.281 304.065C119.21 304.218 119.148 304.369 119.091 304.525C119.071 304.575 119.051 304.623 119.031 304.674C119 304.78 118.98 304.889 118.972 304.999C118.983 304.934 118.992 304.871 119.002 304.807C118.987 304.894 118.971 304.98 118.959 305.067C118.957 305.116 118.962 305.165 118.973 305.214C118.954 305.305 118.954 305.398 118.973 305.489C118.982 305.533 118.995 305.579 119.005 305.625C119.038 305.728 119.114 305.817 119.216 305.87C119.32 305.923 119.44 305.938 119.555 305.911C119.612 305.903 119.668 305.892 119.724 305.878C119.831 305.845 119.928 305.793 120.011 305.724C120.076 305.7 120.138 305.669 120.194 305.631C120.248 305.585 120.298 305.536 120.345 305.486C120.435 305.398 120.51 305.297 120.565 305.186C120.619 305.072 120.673 304.959 120.718 304.842C120.781 304.656 120.815 304.462 120.82 304.268C120.827 304.206 120.829 304.141 120.832 304.079C120.838 303.972 120.82 303.864 120.78 303.764C120.74 303.663 120.678 303.57 120.598 303.491" fill="#FBA383"/>
<path d="M115.67 302.491C115.645 302.395 115.599 302.304 115.536 302.223L115.516 302.199L115.507 302.181C115.476 302.135 115.434 302.096 115.383 302.069C115.383 302.054 115.383 302.04 115.383 302.025C115.382 301.996 115.371 301.968 115.35 301.947C115.329 301.925 115.3 301.911 115.269 301.907C115.237 301.903 115.206 301.91 115.179 301.926C115.152 301.941 115.133 301.966 115.124 301.993L115.112 302.027C115.087 302.029 115.063 302.034 115.04 302.041C115.04 302.041 115.01 302.053 114.988 302.064L114.886 302.104C114.865 302.115 114.845 302.128 114.827 302.144C114.741 302.196 114.663 302.257 114.597 302.329C114.548 302.389 114.504 302.452 114.463 302.517C114.433 302.56 114.403 302.603 114.374 302.644C114.312 302.733 114.26 302.827 114.221 302.926L114.29 302.777C114.26 302.842 114.228 302.904 114.201 302.968C114.162 303.049 114.142 303.138 114.143 303.227C114.144 303.244 114.147 303.262 114.15 303.279C114.159 303.34 114.166 303.401 114.171 303.463C114.171 303.527 114.188 303.591 114.22 303.647C114.252 303.705 114.297 303.756 114.353 303.795C114.409 303.835 114.475 303.863 114.544 303.876C114.614 303.89 114.686 303.887 114.756 303.87C114.951 303.834 115.134 303.754 115.289 303.639C115.449 303.482 115.561 303.29 115.616 303.082C115.692 302.893 115.711 302.688 115.674 302.49" fill="#FBA383"/>
<path d="M114.739 302.2L114.822 302.143C114.831 302.136 114.838 302.128 114.847 302.123L114.738 302.2" fill="#FBA383"/>
</svg>
