<svg width="38" height="42" viewBox="0 0 18 22" fill="none" xmlns="http://www.w3.org/2000/svg">
<path d="M14.9165 20.3968C13.7597 21.5182 12.4967 21.3411 11.2809 20.81C9.99431 20.267 8.81393 20.2434 7.45651 20.81C5.75677 21.5418 4.85969 21.3293 3.84457 20.3968C-1.91565 14.4596 -1.06578 5.41791 5.47348 5.08741C7.06698 5.17003 8.17653 5.96088 9.10903 6.0317C10.5019 5.74841 11.8357 4.93396 13.323 5.04019C15.1053 5.18184 16.4509 5.89006 17.3362 7.16486C13.6535 9.37216 14.5269 14.2235 17.9028 15.5809C17.23 17.3515 16.3565 19.1102 14.9047 20.4086L14.9165 20.3968ZM8.99099 5.01658C8.81394 2.38435 10.9504 0.212467 13.4056 0C13.7479 3.04536 10.6435 5.31168 8.99099 5.01658Z" fill="#085410"/>
</svg>
