<svg width="35" height="35" viewBox="0 0 25 25" fill="none" xmlns="http://www.w3.org/2000/svg">
<g clip-path="url(#clip0_180_465)">
<path d="M24.5778 12.6702C24.5778 11.6511 24.4951 10.9074 24.3161 10.1362H12.6792V14.7359H19.5098C19.3722 15.8789 18.6285 17.6004 16.9759 18.7571L16.9527 18.9111L20.6321 21.7615L20.887 21.7869C23.2281 19.6248 24.5778 16.4435 24.5778 12.6702Z" fill="#4285F4"/>
<path d="M12.6794 24.7887C16.0258 24.7887 18.8352 23.687 20.8872 21.7866L16.9761 18.7567C15.9295 19.4866 14.5247 19.9962 12.6794 19.9962C9.40179 19.9962 6.61997 17.8341 5.62832 14.8457L5.48297 14.858L1.65709 17.8189L1.60706 17.958C3.64522 22.0068 7.83178 24.7887 12.6794 24.7887Z" fill="#34A853"/>
<path d="M5.62821 14.8459C5.36656 14.0747 5.21513 13.2483 5.21513 12.3945C5.21513 11.5407 5.36656 10.7144 5.61445 9.9432L5.60752 9.77896L1.73369 6.77051L1.60695 6.83079C0.766921 8.51094 0.284912 10.3977 0.284912 12.3945C0.284912 14.3914 0.766921 16.2781 1.60695 17.9582L5.62821 14.8459Z" fill="#FBBC05"/>
<path d="M12.6794 4.79246C15.0067 4.79246 16.5767 5.79778 17.4719 6.6379L20.9698 3.22254C18.8215 1.22567 16.0258 0 12.6794 0C7.83178 0 3.64522 2.78183 1.60706 6.83062L5.61455 9.94303C6.61997 6.95462 9.40179 4.79246 12.6794 4.79246Z" fill="#EB4335"/>
</g>
<defs>
<clipPath id="clip0_180_465">
<rect width="24.8742" height="24.8742" fill="white"/>
</clipPath>
</defs>
</svg>
