<svg width="15" height="14" viewBox="0 0 15 14" fill="none" xmlns="http://www.w3.org/2000/svg">
<path d="M7.50586 4.87956V12.5988M7.50586 4.87956L10.0789 7.45264M7.50586 4.87956L4.93278 7.45264M12.2232 9.16803C13.526 9.16803 14.3674 8.11221 14.3674 6.80937C14.3674 6.29357 14.1982 5.792 13.886 5.38149C13.5737 4.97098 13.1354 4.67415 12.6383 4.53648C12.5618 3.57454 12.1631 2.66651 11.5067 1.95919C10.8503 1.25187 9.97454 0.786608 9.02098 0.638625C8.06742 0.490641 7.09181 0.668586 6.2519 1.14369C5.41199 1.61879 4.75686 2.36329 4.39243 3.2568C3.62516 3.04411 2.80482 3.14493 2.11188 3.53708C1.41894 3.92923 0.910168 4.58059 0.697479 5.34786C0.48479 6.11513 0.58561 6.93547 0.97776 7.62841C1.36991 8.32134 2.02127 8.83012 2.78854 9.04281" stroke="#085410" stroke-width="1.17627" stroke-linecap="round" stroke-linejoin="round"/>
</svg>
