<svg width="108" height="125" viewBox="0 0 108 125" fill="none" xmlns="http://www.w3.org/2000/svg">
<g clip-path="url(#clip0_180_604)">
<path d="M96.573 51.908L48.6498 56.2508L47.3155 57.1683C51.6001 57.7984 50.6771 59.7783 52.9061 60.884C49.9364 61.7653 46.2071 65.4705 43.589 65.3057C41.4566 65.1733 37.4459 65.0132 36.0311 64.9587L30.9479 68.4759L31.1428 70.498L90.317 68.3704L96.8918 52.96L96.573 51.908Z" fill="#001C18"/>
<path d="M74.5344 84.517C73.4031 82.2213 75.6257 77.2497 75.3822 74.1851C77.4038 75.8222 79.7801 74.792 82.2494 79.4483L83.3621 76.6132L58.6075 33.2711L42.0105 39.4589L40.9626 40.2799L74.1742 97.1738L75.5119 96.6159L77.6519 91.1609C77.0624 89.8653 75.4466 86.366 74.5344 84.517Z" fill="#001C18"/>
<path d="M82.2511 79.4489L81.0903 79.9434C80.6374 78.8179 79.9352 77.8603 79.0448 77.1543C77.616 76.0692 76.6362 76.6819 74.7775 74.9314C74.6562 74.6607 74.633 74.3395 74.7125 74.03C74.7919 73.7205 74.9684 73.4446 75.2076 73.2557L80.1092 75.1608L82.2511 79.4489Z" fill="#001C18"/>
<path d="M74.5343 84.5171C73.403 82.2213 75.6257 77.2497 75.3821 74.1851C77.4038 75.8222 79.7801 74.792 82.2494 79.4483L83.362 76.6132L56.9442 31.425L42.0105 39.4589L75.5188 96.6119L77.6588 91.1569C77.0624 89.8653 75.4465 86.366 74.5343 84.5171Z" fill="#004B40"/>
<path d="M70.3123 54.2886L51.6985 55.9761L59.6119 69.4757L78.789 68.785L70.3123 54.2886Z" fill="#001C18"/>
<path d="M47.3152 57.1684L47.3594 58.6471C47.3594 58.6471 48.8193 58.2922 49.75 59.4716C50.6807 60.651 51.2982 62.1171 53.3725 62.193C53.8639 61.5156 54.1487 60.6897 54.1794 59.8533C54.1794 59.8533 50.454 56.8732 50.3599 56.8408C50.2658 56.8083 47.3152 57.1684 47.3152 57.1684Z" fill="#001C18"/>
<path d="M48.6498 56.2508L47.3155 57.1683C51.6001 57.7984 50.6771 59.7783 52.9061 60.884C49.9364 61.7653 46.2071 65.4705 43.589 65.3057C41.4566 65.1733 37.4459 65.0132 36.0311 64.9587L30.9479 68.4759L89.8021 67.0297L96.573 51.908L48.6498 56.2508Z" fill="#004B40"/>
<path d="M70.7167 53.4172L49.0921 54.1929L57.0767 67.8715L58.4886 67.8005L70.7167 53.4172Z" fill="#001C18"/>
<path d="M70.7165 53.4172L50.6048 54.1396L58.4884 67.8006L70.7165 53.4172Z" fill="#001C18"/>
<path d="M43.2293 39.4223C43.2293 39.4223 56.6651 63.5839 57.1746 64.442C57.6841 65.3002 58.7979 66.8753 61.3999 66.8349C64.002 66.7946 89.2731 66.1478 89.2731 66.1478L96.3154 50.9673L96.3149 50.4972L71.3832 50.8082L59.4969 30.6381L43.3893 38.9582L43.2293 39.4223Z" fill="#001C18"/>
<path d="M43.3897 38.9581C43.3897 38.9581 56.8255 63.1198 57.3344 63.9798C57.8432 64.8399 58.9583 66.4112 61.5597 66.3727C64.1611 66.3343 89.0742 65.7078 89.0742 65.7078L96.312 50.5067L71.5469 50.3345L59.6599 30.1663L43.3897 38.9581Z" fill="#87D1A4"/>
<path d="M60.7123 30.1945L44.0405 39.0367L57.4763 63.1984C57.4763 63.1984 58.738 62.9897 59.4908 63.2494C60.2436 63.509 61.2844 65.7993 61.2844 65.7993L88.2537 64.9957L95.5446 50.0104L93.8603 48.247L72.3923 49.6025L61.4305 30.4422L60.7123 30.1945Z" fill="#EFE8C5"/>
<path d="M94.1865 48.5656C93.5585 49.7867 92.9169 50.9989 92.2736 52.2105L90.3251 55.8303L88.3418 59.4381L87.3387 61.238L86.3229 63.0208L87.27 61.2015L88.2319 59.3873L90.1788 55.767L92.162 52.1592C92.835 50.9471 93.502 49.7522 94.1865 48.5656Z" fill="#FFD1A3"/>
<path d="M94.4001 48.8839C93.7985 50.0927 93.1982 51.2976 92.5747 52.4946L90.7107 56.0835L88.8163 59.6533L87.8574 61.432L86.8784 63.1995L87.7851 61.3899L88.7054 59.5893L90.5754 55.9939L92.4714 52.4247C93.1057 51.2443 93.7453 50.0593 94.4001 48.8839Z" fill="#FFD1A3"/>
<path d="M94.7115 49.2123C94.1208 50.427 93.5082 51.6299 92.9073 52.8368L91.0733 56.4403L89.1928 60.0234L88.2448 61.8081L87.2826 63.5856L88.1768 61.7696L89.0852 59.9606L90.9257 56.3593L92.8006 52.7764C93.43 51.5836 94.0643 50.3925 94.7115 49.2123Z" fill="#FFD1A3"/>
<path d="M95.0172 49.5259C94.4347 50.7435 93.838 51.954 93.2387 53.1614L91.4232 56.7756L89.5741 60.3696L88.6386 62.1607L87.6896 63.9428L88.5712 62.1203L89.4681 60.3073L91.2836 56.6931L93.1311 53.0985C93.7466 51.9031 94.3776 50.7109 95.0172 49.5259Z" fill="#FFD1A3"/>
<path d="M95.3115 49.8506C94.732 51.0863 94.1366 52.3145 93.5412 53.5319L91.7314 57.1995L89.8868 60.8551L88.953 62.6789L88.0026 64.4971L88.8787 62.6533L89.7712 60.8153L91.5894 57.1505L93.4339 53.4948C94.0544 52.2582 94.6732 51.0532 95.3115 49.8506Z" fill="#FFD1A3"/>
<path d="M46.2418 39.0555C46.2418 39.0555 49.3786 44.2296 52.2592 47.9291C55.1398 51.6285 60.0507 60.0304 59.496 63.2403C62.6438 61.3818 66.6611 58.9626 72.2444 60.1501C77.8276 61.3375 84.73 62.8296 85.8527 62.5258C87.2198 60.0403 93.8783 48.2381 93.8783 48.2381C91.922 48.0132 89.9893 47.6598 88.09 47.1796C85.1716 46.4177 75.5893 45.5291 72.4008 49.6053C72.3879 45.4593 71.252 42.604 68.2423 39.3965C65.2327 36.189 61.4307 30.4422 61.4307 30.4422L46.2418 39.0555Z" fill="#FBF9EF"/>
<path d="M59.4975 63.2454C62.6434 61.3819 66.6607 58.9627 72.2439 60.1501C77.8271 61.3375 84.7295 62.8297 85.8522 62.5259C87.2193 60.0403 93.8779 48.2382 93.8779 48.2382C91.9215 48.0133 89.9889 47.6598 88.0895 47.1796C85.1712 46.4177 75.5888 45.5292 72.4003 49.6054L59.4975 63.2454Z" fill="#FBF9EF"/>
<path d="M76.0738 61.5696C65.1515 60.4313 59.4979 63.2453 59.4979 63.2453C60.2557 63.5067 61.2916 65.7953 61.2916 65.7953L88.2609 64.9917C88.2609 64.9917 86.6237 63.3111 85.8417 62.5307C84.4119 62.9002 82.2871 62.1782 76.0738 61.5696Z" fill="#FBF9EF"/>
<path d="M56.3246 52.6381C53.9813 48.9716 46.2415 39.0555 46.2415 39.0555L44.0328 39.0319L57.4687 63.1936C57.4687 63.1936 58.7303 62.9849 59.4832 63.2446C60.8193 60.6453 58.6662 56.3041 56.3246 52.6381Z" fill="#FBF9EF"/>
<path d="M56.3244 52.6382C53.9811 48.9717 46.2413 39.0555 46.2413 39.0555C46.2413 39.0555 55.6486 53.4888 56.8386 55.3305C58.0285 57.1723 59.9756 61.4897 59.4975 63.2454C60.8191 60.6454 58.666 56.3041 56.3244 52.6382Z" fill="#FCCE98"/>
<path d="M45.8536 39.5635C45.8536 39.5635 57.7298 58.8954 59.4974 63.2454C58.5133 59.2107 49.9503 45.0343 45.8536 39.5635Z" fill="#FCCE98"/>
<path d="M45.3111 39.3761L47.0184 42.2568L48.7122 45.1499L52.0769 50.9541L55.4072 56.7829L57.0623 59.7078L58.7012 62.6421L56.9939 59.7615L55.3002 56.8683L51.9355 51.0641L48.6058 45.2334L46.95 42.3104L45.3111 39.3761Z" fill="#FCCE98"/>
<path d="M60.2556 63.5067C61.3267 63.256 62.4008 63.0449 63.4758 62.8362C64.5509 62.6276 65.6273 62.4581 66.7059 62.2979C67.2459 62.2159 67.7849 62.1422 68.3249 62.0816C68.8649 62.0211 69.4035 61.9644 69.9485 61.9377C71.032 61.8973 72.1056 61.9392 73.1749 61.999C74.2442 62.0588 75.3046 62.1713 76.364 62.2813C77.4234 62.3913 78.4827 62.5013 79.5398 62.6341C80.5968 62.7669 81.6443 62.89 82.7123 63.0072C83.7651 63.1484 84.8294 63.2239 85.9004 63.2334C85.3601 63.2815 84.8208 63.2926 84.2854 63.2665C83.7495 63.2512 83.2161 63.2175 82.6838 63.1862C81.6171 63.1081 80.5571 63.0107 79.4941 62.9166C77.3717 62.7232 75.2546 62.4931 73.1275 62.3668C72.0661 62.2947 70.9998 62.2424 69.9341 62.2739C69.403 62.2925 68.8674 62.3352 68.3267 62.3977L66.715 62.5714C65.6387 62.6981 64.5623 62.8462 63.487 63.0075C62.4116 63.1688 61.332 63.3372 60.2556 63.5067Z" fill="#FCCE98"/>
<path d="M60.9499 64.0165C63.068 63.6884 65.1873 63.4622 67.3078 63.3381C68.3657 63.2737 69.425 63.2378 70.4855 63.2302C71.0132 63.2212 71.5403 63.2356 72.0684 63.2417C72.5964 63.2479 73.1222 63.2769 73.6462 63.3053C75.7433 63.4169 77.8452 63.4981 79.9465 63.5705C80.9976 63.6082 82.0496 63.6377 83.1027 63.659C83.6287 63.6709 84.1548 63.6828 84.6809 63.684C85.207 63.6852 85.7357 63.6894 86.2654 63.6532C84.1468 63.8024 82.0392 63.7429 79.9329 63.7117C77.8266 63.6805 75.7276 63.5854 73.6237 63.4885C71.5293 63.3584 69.4131 63.3775 67.3054 63.4789C66.2495 63.5267 65.1912 63.5973 64.1307 63.6908C63.0682 63.7771 62.0087 63.8817 60.9499 64.0165Z" fill="#FCCE98"/>
<path d="M60.7128 59.5678L60.6691 59.1965C60.5105 57.9851 58.9663 54.6371 57.1357 51.9693C55.3869 49.4177 50.2636 41.7709 50.2105 41.6946L50.0917 41.5034L62.6177 33.9052L62.7203 34.0629C62.7658 34.1237 67.2939 40.0845 68.9941 42.6215C70.6943 45.1585 71.5546 48.4917 71.5628 48.5267L71.6017 48.7997L71.5597 48.8411C71.4999 48.902 65.544 54.8585 60.8212 59.4678L60.7128 59.5678ZM50.403 41.6559C50.9739 42.4966 55.6217 49.4386 57.2688 51.8457C58.9159 54.2528 60.5345 57.5299 60.8076 59.0039C65.2984 54.6172 70.8512 49.0688 71.3931 48.5261C71.2731 48.0813 70.4315 45.0743 68.8633 42.733C67.2509 40.3271 63.0911 34.8303 62.6333 34.2346L50.403 41.6559Z" fill="#004B40"/>
<path d="M63.3004 60.3723L62.7989 60.6693L73.3856 49.2992L73.3938 49.302C73.4222 49.2839 76.2847 47.5244 78.9684 47.3384C82.9852 47.1594 89.2576 48.5394 89.3226 48.549L89.7364 48.6402L89.6597 48.7554L82.0368 60.0275L82.0021 60.0799L81.6586 60.0044C67.9921 56.4476 63.3509 60.3382 63.3004 60.3723ZM73.4799 49.4541L63.7907 59.8719C65.3962 58.9664 70.5929 56.9518 81.6637 59.813C83.6952 56.8098 88.5004 49.701 89.1713 48.7093C88.2853 48.5196 82.6671 47.3587 78.9772 47.5217C76.4104 47.6901 73.6725 49.3295 73.4799 49.4541Z" fill="#004B40"/>
</g>
<defs>
<clipPath id="clip0_180_604">
<rect width="87.3193" height="101.432" fill="white" transform="translate(33.0714) rotate(19.0289)"/>
</clipPath>
</defs>
</svg>
