<svg width="20" height="20" viewBox="0 0 20 20" fill="none" xmlns="http://www.w3.org/2000/svg">
<path d="M11.0643 0.628418H2.01987C1.65083 0.628418 1.29691 0.775017 1.03596 1.03596C0.775017 1.29691 0.628418 1.65083 0.628418 2.01987V17.3258C0.628418 17.6949 0.775017 18.0488 1.03596 18.3097C1.29691 18.5707 1.65083 18.7173 2.01987 18.7173H14.5429C14.912 18.7173 15.2659 18.5707 15.5268 18.3097C15.7878 18.0488 15.9344 17.6949 15.9344 17.3258V11.0643M0.628418 14.5429H15.9344M4.80277 4.10704H7.58567M4.80277 7.58567H6.19422" stroke="#085410" stroke-width="1.39145" stroke-linecap="round" stroke-linejoin="round"/>
<path d="M12.4473 10.3769L8.27295 11.1283L8.96867 6.89826L14.8545 1.04025C14.9839 0.909832 15.1378 0.806316 15.3073 0.735674C15.4769 0.665032 15.6588 0.628662 15.8424 0.628662C16.0261 0.628662 16.208 0.665032 16.3776 0.735674C16.5471 0.806316 16.701 0.909832 16.8304 1.04025L18.3053 2.51519C18.4357 2.64454 18.5392 2.79844 18.6099 2.968C18.6805 3.13756 18.7169 3.31943 18.7169 3.50312C18.7169 3.68681 18.6805 3.86868 18.6099 4.03824C18.5392 4.2078 18.4357 4.36169 18.3053 4.49105L12.4473 10.3769Z" stroke="#085410" stroke-width="1.39145" stroke-linecap="round" stroke-linejoin="round"/>
</svg>
